/* XPM */
static char *fbecbe8b41a44affd9dfe20ea151e2d65T0NO5VQG03SqPZM[] = {
/* columns rows colors chars-per-pixel */
"32 32 124 2 ",
"   c #222222",
".  c #232323",
"X  c #242323",
"o  c #252323",
"O  c gray14",
"+  c #262525",
"@  c #272525",
"#  c gray15",
"$  c #292525",
"%  c #282626",
"&  c #292727",
"*  c #2C2828",
"=  c #2D2929",
"-  c #2E2A29",
";  c #2D2A2A",
":  c #322C2C",
">  c #332D2C",
",  c #332F2F",
"<  c #342E2D",
"1  c #362F2E",
"2  c #353030",
"3  c #383130",
"4  c #393130",
"5  c #3A3130",
"6  c #393333",
"7  c #3A3332",
"8  c #3B3332",
"9  c #3B3333",
"0  c #3C3130",
"q  c #3C3332",
"w  c #3D3433",
"e  c #3D3434",
"r  c #3E3534",
"t  c #413635",
"y  c #403736",
"u  c #413736",
"i  c #423736",
"p  c #423737",
"a  c #433837",
"s  c #453837",
"d  c #433938",
"f  c #443938",
"g  c #463A39",
"h  c #473A39",
"j  c #463B3A",
"k  c #473B3A",
"l  c #473C3B",
"z  c #483A39",
"x  c #4A3A39",
"c  c #4B3A39",
"v  c #483B3A",
"b  c #493B3A",
"n  c #483B3B",
"m  c #493B3B",
"M  c #4A3B3A",
"N  c #4B3B3A",
"B  c #4A3B3B",
"V  c #4B3B3B",
"C  c #4C3A39",
"Z  c #4C3A3A",
"A  c #483C3A",
"S  c #493C3A",
"D  c #483D3A",
"F  c #483C3B",
"G  c #493C3B",
"H  c #483D3B",
"J  c #493D3B",
"K  c #4A3C3B",
"L  c #4B3C3B",
"P  c #483C3C",
"I  c #493C3C",
"U  c #483D3C",
"Y  c #493D3C",
"T  c #483D3D",
"R  c #493D3D",
"E  c #4A3C3C",
"W  c #4B3C3C",
"Q  c #4A3D3C",
"!  c #4B3D3C",
"~  c #4A3D3D",
"^  c #4B3D3D",
"/  c #4B3E3C",
"(  c #4A3E3D",
")  c #4B3E3D",
"_  c #4C3E3C",
"`  c #4D3E3D",
"'  c #4F403E",
"]  c #4F413F",
"[  c #50403E",
"{  c #51413F",
"}  c #4F4140",
"|  c #534140",
" . c #514241",
".. c #524240",
"X. c #524241",
"o. c #544440",
"O. c #564642",
"+. c #5B4945",
"@. c #5C4946",
"#. c #5F4C46",
"$. c #5F4C48",
"%. c #614C47",
"&. c #634F4B",
"*. c #644D49",
"=. c #664E49",
"-. c #654E4A",
";. c #644F4B",
":. c #6D544F",
">. c #6E564F",
",. c #6E5550",
"<. c #6D5650",
"1. c #725852",
"2. c #775953",
"3. c #745A53",
"4. c #765A54",
"5. c #765B54",
"6. c #765C55",
"7. c #775C55",
"8. c #775C56",
"9. c #795A53",
"0. c #785B54",
"q. c #785C55",
"w. c #785D55",
"e. c #785D56",
/* pixels */
"            > > :   . .         : : : : : : .   : : . . O @ .   ",
"    X O $ O k n   . .     . . . 2 L s w < < O . z z . - : - O   ",
"O O q I n L n k s w 2 < w l : 2 l l L a . . 2 h L h L O.%.%.w.w.",
"    I I I L n n L a   . 0 l a r 0 l a h : 2 L l h l h { 6.5.w.w.",
"> L l L L k n C a h : 7 l L l l l h h l a t 0 h k l ] L *.#.6.w.",
"> I I L L l n n h L a a r L z l l L l h h l l L n l L L ....6.w.",
"> I n L l L L C l z L l L l l L h L l L L L l l n z n n L I w.w.",
"> U l l L L L n l l L L z l l l l L h l h l l L l L k l L I 3.6.",
"  = L n L L k k l l L n L l l L h L L z h l h L z L z L l L :.5.",
"O O L n l l k k L k L z s L L L l z l l L L l h L s l l l z *.5.",
": n k l l L l l L l s L L l l z z L L h l z L l L L L L l k 6.w.",
": n k n L s L L l l L l s L z L l L l l h L h L l l l l k L &.w.",
"    t s k l L s h L h l L h l l l L l l h l h l l L L L n s L >.",
"  $ 0 7 t l z n l h L h L l L n L h L z L h L l l L s z z L l >.",
"  2 7 w w L k n h l h l l l L l L z l z h l l L l h l l k l 5.6.",
"O 7 L l n N k n L h L h L h L L l l l L L z l z l L L z n L 6.w.",
"% < l k s z L z L z l L l L l l h L l h l h L l h L l L L l h :.",
"= : z l l L h l h l h h L s L l L h z l h L h L l L l L l L L >.",
": L L L l L l z L l h l l h z L l h L h l h l l l l L l l L :.5.",
": L L z L L L l L h L L z l l l h L h l h L z l h L l L l L =.5.",
": L l l l L l l l L l L s L l L L h h L h l L L h l ' L h l 5.5.",
": l l l l L L l L l L l l L L s h l l h h L l L h l l z l L ;.5.",
"    z L l L L L l l s L l z s l L l l L L l l L L l l L L L L >.",
"  . L L L h l l L l L l L l L L h L L h l L l z L z h l h l l >.",
"  . l l L L ' j h L l l l z l l l l L l L L l l l h h L ' L h >.",
"    l L L L l l L l h L l L l L L L L l L L z l L L L { ] ' L >.",
"  ; l L k L k l L L L l L L L l l l L l h l h L l l l O.#.%.6.5.",
". = l L n L n ] ] ] L l l l L L l L L L l l L l l L z { 6.5.w.w.",
"  & l L n n L o.#.&.{ L l L L L L l L k L l h l n n ^ ^ &.#.6.w.",
"$ O l l L l L { 6.5.@.L L k k L L l k l h L L L L L I ^ ....6.w.",
"w.5.:.>.;.w.] I *.%.w.1.L l @.;.9.:.:.&.w.5.l L :.:.;.q.w.e.w.w.",
"w.6.9.w.6.6.>.>.>.>.6.6.>.:.:.&.w.5.w.6.w.5.:.>.w.5.6.e.3.6.w.6."
};
