/* XPM */
static char *e91e6e20bfd749edc80866f78e899264sYklAxmaBqCSNjhI[] = {
/* columns rows colors chars-per-pixel */
"32 32 91 1 ",
"  c #151412",
". c #1A1615",
"X c #161C17",
"o c #1B1917",
"O c #1C1C1C",
"+ c #231E1C",
"@ c #1C211C",
"# c #25211E",
"$ c #28211F",
"% c #252524",
"& c #2B2524",
"* c #262926",
"= c #2E2A25",
"- c #2F2728",
"; c #2C2C2C",
": c #302725",
"> c #312A26",
", c #302728",
"< c #342C2C",
"1 c #392F2C",
"2 c #36322C",
"3 c #3B312E",
"4 c #362E30",
"5 c #343434",
"6 c #3C3333",
"7 c #3E3932",
"8 c #3C3C3C",
"9 c #423634",
"0 c #443A36",
"q c #483A37",
"w c #463C39",
"e c #4B3D3A",
"r c #434037",
"t c #46423B",
"y c #4D423D",
"u c #4B4A3F",
"i c #50443F",
"p c #4E4B41",
"a c #514741",
"s c #534C43",
"d c #565246",
"f c #585147",
"g c #555548",
"h c #59554A",
"j c #59564C",
"k c #57594A",
"l c #59594A",
"z c #5A594B",
"x c #5B594C",
"c c #5C5B4D",
"v c #5E5B4D",
"b c #5A5C4D",
"n c #5D5F4F",
"m c #62574D",
"M c #60594E",
"N c #605B4E",
"B c #5F6051",
"V c #5F6151",
"C c #616252",
"Z c #626352",
"A c #666455",
"S c #686354",
"D c #676857",
"F c #6A6957",
"G c #6A6A59",
"H c #6C6958",
"J c #6B6C59",
"K c #6C6E5B",
"L c #72715D",
"P c #72735F",
"I c #74705E",
"U c #777361",
"Y c #787663",
"T c #767963",
"R c #767A63",
"E c #7B7D67",
"W c #7D7F69",
"Q c #7F7E69",
"! c #7E8069",
"~ c #83846D",
"^ c #898971",
"/ c #8C8A72",
"( c #8A8C72",
") c #8D9276",
"_ c #909277",
"` c #939178",
"' c #94957A",
"] c #94967A",
"[ c #96987C",
"{ c #9FA183",
"} c #A2A485",
/* pixels */
"5;;;%O%OOOOO85%O.3%;;%O%8;OOOO%;",
";%;%OO8;%%OO8;;8%f+%%;O8;5;OOO%;",
";%OOO8585;&@O;%;<K1&oOO%5;;%O%O%",
"%OO8;;8585c%O;;5ps,:XOOO%%%;OOOO",
"OO8;5;5;&UC6%O;>79++%;%%O%;%O%OO",
"O%;8;;85c'w&%O+gC<&:#5;5;OOOO;%%",
"@;;%;%;&WF0<9#oNYw<$+O;8*OOO5;5;",
"%%;;;;;4cce<<1&699&,<&&;8;OO;5;;",
"OO%;%%5<00< O&0L<2pnBCgp;%O;;;%%",
"OOO%5;<ypt==+$,sGbnnBQ~pOO%;%OOO",
"%OOO%;6^[W!k<$%w`RBB'^a6%OOO%5;8",
";%OOO%6ASms7<&&qh^(K^g,44%OO%%8%",
"%;OOOO6jsqe7<,-f^yL}N4$94;OO%;;5",
";%OOO-76yee64$$x(yaR6&+,6%O;5;8;",
";OOOOpBY721-&.$aUayt4&+-9OO8;5;;",
"%O5%-a~_ce66-$&qpae64++,& ;O%;8;",
"O@8;#0HRgsi93#06693<6O..+O8%O%;*",
"@8;*=>yfifgs73gRGp3.&.$+1<#%OOOO",
"O5#$dgg336iq<qF}Ae3O$-,+96.;%OOO",
";%%3eH)h< &&=eN_de6261$$6q.+OOOO",
"%@%yi]Iyi9$$9eiChe9664&+,9+OOOOO",
";5#1lLyeey0<eehlewe044$.,6O%OOOO",
";*@O1eeeyq&0iehdeq9666&.+#.#OOOO",
"5;*@O>qwye$<19yeii9&64+O.+6O%OO%",
";55*@@@O$=rlk03<99<$&$&&o,q&OO@%",
";*;;O@O@@X0l!}Uuw796<<<++491.O%;",
"%;%%OOOO5#qeF[}Edse66<$o#4,+.O@;",
"OOOOOOO;@<iyJ{Edw7e66;$+++.+O@OO",
"O*OOXOO4@#30JWsee6996&o$&++#.@+@",
";;5;OOO;*@XX&:1ewe9<6;.+&+oX@@O5",
"855;;OO%;5*@OO@@#&+.$&.o+.O@@O5;",
";8;5%OOO%;%OOXO@@OOO..oXOOXOOO;5"
};
