/* XPM */
static char *d8532df3cf9c443a9684bd3e91738818AwlrlLd9zfqAsOKE[] = {
/* columns rows colors chars-per-pixel */
"32 32 106 2 ",
"   c #222222",
".  c #232323",
"X  c #242323",
"o  c #252525",
"O  c #292525",
"+  c #282626",
"@  c #2B2727",
"#  c #292827",
"$  c #2A2828",
"%  c #2E2A29",
"&  c #2F2B2A",
"*  c #322D2A",
"=  c #332C2C",
"-  c #332D2C",
";  c #342D2D",
":  c #33302D",
">  c #34312E",
",  c #373030",
"<  c #393130",
"1  c #3A3232",
"2  c #3D3433",
"3  c #403733",
"4  c #413736",
"5  c #433837",
"6  c #473A37",
"7  c #463939",
"8  c #473C3B",
"9  c #483A39",
"0  c #483C3B",
"q  c #493C3B",
"w  c #493D3C",
"e  c #4B3D3C",
"r  c #4C3E3C",
"t  c #4F403F",
"y  c #52423E",
"u  c #54433F",
"i  c #524240",
"p  c #554440",
"a  c #594843",
"s  c #5B4945",
"d  c #5D4A45",
"f  c #5F4B46",
"g  c #5A4F47",
"h  c #634C47",
"j  c #634D47",
"k  c #634C49",
"l  c #644D49",
"z  c #664E49",
"x  c #64564D",
"c  c #6A524D",
"v  c #6A544E",
"b  c #6E554F",
"n  c #695A50",
"m  c #6C5C53",
"M  c #705651",
"N  c #735851",
"B  c #775A53",
"V  c #775A54",
"C  c #775C55",
"Z  c #795A53",
"A  c #795B54",
"S  c #785B55",
"D  c #785C54",
"F  c #716157",
"G  c #7A675A",
"H  c #736A5F",
"J  c #79685B",
"K  c #7C695D",
"L  c #7D6B5E",
"P  c #7D7367",
"I  c #826E60",
"U  c #877363",
"Y  c #8C7667",
"T  c #8D7668",
"R  c #82786C",
"E  c #937A6A",
"W  c #937B6C",
"Q  c #937C6C",
"!  c #947C6C",
"~  c #967D6E",
"^  c #8A7E71",
"/  c #8D7D72",
"(  c #908175",
")  c #9A8170",
"_  c #998B7C",
"`  c #9D8C7E",
"'  c #A28775",
"]  c #A58977",
"[  c #A78B79",
"{  c #A88B79",
"}  c #A88C78",
"|  c #A88C79",
" . c #AA8D7A",
".. c #AA9989",
"X. c #AD9D8C",
"o. c #B4A392",
"O. c #B8A694",
"+. c #B9A694",
"@. c #BEAB98",
"#. c #C0AD9A",
"$. c #C6B19D",
"%. c #CAB7A2",
"&. c #CEB9A4",
"*. c #D0BDA7",
"=. c #D1BDA8",
"-. c #D3BFA9",
/* pixels */
" . . . .  X : > G  . . . . . . . . .     . . . . . .     . . . .",
" . . . .o o : >  . . . . . . . .[ ]      . . . . . .     . . . .",
" . . . .    W E J  . . . . . . .~ E      . . . . . .     . . . .",
" . . . .     . . . . . . . . .] I n      . . . . . .     . . . .",
" . . . .     . . . . . . . .]  .Q        . . . . . .  . [  . . .",
" . . . .  o {  . . . . .| ) E Y ) g o    . . . . . .  . ~ '  . .",
"[ [ [ ~ o   '  . . . . . .U F m L K     |  . . . .|     x T [  .",
"@.O.@._     X.&.-.-.-.=.=.O.: > H P   o &.=.*.=.=.=.    $ ^ =.=.",
"..( / `     ^ =.=.=.=.-.#.%.: > o.      *.$.#.$.&.@.    R =.-.-.",
"M 9 7 j 6 y B D S Z D D V B v k a 6 y V Z S S S D C B c z p V D ",
"w 0 9 0 5 4 < 8 w 9 w 9 9 0 0 9 7 5 5 < 0 y D V d w 9 0 8 w 9 0 ",
"9 9 8 w 0 7 0 9 0 0 0 0 0 0 9 9 7 8 7 8 y r z d w 9 w 9 w 9 0 9 ",
"      X         + 0   ; + o               o X   6 o & , , + X   ",
"              + + X - & * * o                 o X   o 7 7 ; X   ",
"S D S Z D C Z C Z b b v S Z ; X D D V D C Z S S V N V d ;       ",
"S Z Z C S Z C Z Z C Z S S S 6 o S D D S Z C Z S D D B b $ - X   ",
"0 0 0 9 9 0 9 0 9 w i r z d X   9 0 9 0 0 9 0 9 0 9 0 9 X + 9 9 ",
"7 7 9 0 0 9 0 9 w 9 7 w w 0 3 o 0 9 0 9 9 0 9 0 9 0 9 0 + + 0 w ",
"; 4 w 7 9 0     7 0 0 7 2 >   X 0 0 9 0 0 9 0 0 0 9 0 9 * - 5 7 ",
"o > 0 9 0 9 X X 0 9 9 7 6 X     7 9 0 9 9 r r 8 9 0 9 0 o 2 < ; ",
"X         o $ + X           X .         & * &         o o : o   ",
"o       o . . X @ X     X   .         X 2   y   o       o + X X ",
"B Z S M o * 9 0 z Z D S Z C V S D Z D S * Z C Z D S S Z V Z c z ",
"S Z S c < < s h S S D Z S S S D D S S D + u D S D Z C B C S V V ",
"0 9 9 0 9 9 w w 8 9 0 9 0 9 w 9 0 9 9 0 o ; y d 0 9 9 9 w 9 0 9 ",
"0 0 0 9 < ; 0 9 w 9 9 0 9 0 9 9 9 0 9 9     w w 9 w w 9 7 0 9 0 ",
"9 0 0 r o & 0 0 9 0 9 0 0 9 0 9     0 0     9 w * o 7 9 0 9 0 9 ",
"0 0 9 0   X 0 9 0 9 0 9 9 w w r     9 9     0 9 - , w 0 9 0 9 0 ",
"0 7 - X                   o * & +             $ 9 7 *         0 ",
"< ;                         X   ; o         + o < ; X         9 ",
"+ $ ;       9 9           * D Z s w 9 9 7 0   X w 8 ;           ",
"  X X       9 r         & + i w D D D D C Z     S S o           "
};
