/* XPM */
static char *a9cb1152a65d49bfdd8b51ddc7d357d81VqckKeYZJfQNoxO[] = {
/* columns rows colors chars-per-pixel */
"32 32 131 2 ",
"   c black",
".  c #222222",
"X  c #232323",
"o  c #242323",
"O  c #252323",
"+  c gray14",
"@  c #262525",
"#  c #272525",
"$  c gray15",
"%  c #292525",
"&  c #282626",
"*  c #292727",
"=  c #2C2828",
"-  c #2D2929",
";  c #2E2A29",
":  c #2D2A2A",
">  c #322C2C",
",  c #332D2C",
"<  c #332F2F",
"1  c #342E2D",
"2  c #362F2E",
"3  c #353030",
"4  c #383130",
"5  c #393130",
"6  c #3A3130",
"7  c #393333",
"8  c #3A3332",
"9  c #3B3332",
"0  c #3B3333",
"q  c #3C3130",
"w  c #3C3332",
"e  c #3D3433",
"r  c #3D3434",
"t  c #3E3534",
"y  c #413635",
"u  c #403736",
"i  c #413736",
"p  c #423736",
"a  c #423737",
"s  c #433837",
"d  c #453837",
"f  c #433938",
"g  c #443938",
"h  c #463A39",
"j  c #473A39",
"k  c #463B3A",
"l  c #473B3A",
"z  c #473C3B",
"x  c #483A39",
"c  c #4A3A39",
"v  c #4B3A39",
"b  c #483B3A",
"n  c #493B3A",
"m  c #483B3B",
"M  c #493B3B",
"N  c #4A3B3A",
"B  c #4B3B3A",
"V  c #4B3B3B",
"C  c #4C3A39",
"Z  c #4C3A3A",
"A  c #483C3A",
"S  c #493C3A",
"D  c #483D3A",
"F  c #483C3B",
"G  c #493C3B",
"H  c #483D3B",
"J  c #493D3B",
"K  c #4A3C3B",
"L  c #4B3C3B",
"P  c #483C3C",
"I  c #493C3C",
"U  c #483D3C",
"Y  c #493D3C",
"T  c #483D3D",
"R  c #493D3D",
"E  c #4A3C3C",
"W  c #4B3C3C",
"Q  c #4A3D3C",
"!  c #4B3D3C",
"~  c #4A3D3D",
"^  c #4B3D3D",
"/  c #4B3E3C",
"(  c #4A3E3D",
")  c #4B3E3D",
"_  c #4C3E3C",
"`  c #4D3E3D",
"'  c #4F403E",
"]  c #4F413F",
"[  c #50403E",
"{  c #51413F",
"}  c #4F4140",
"|  c #534140",
" . c #514241",
".. c #524240",
"X. c #524241",
"o. c #544440",
"O. c #564642",
"+. c #5B4945",
"@. c #5C4946",
"#. c #5F4C46",
"$. c #5F4C48",
"%. c #614C47",
"&. c #634F4B",
"*. c #644D49",
"=. c #664E49",
"-. c #654E4A",
";. c #644F4B",
":. c #6D544F",
">. c #6E564F",
",. c #6E5550",
"<. c #6D5650",
"1. c #725852",
"2. c #775953",
"3. c #745A53",
"4. c #765A54",
"5. c #765B54",
"6. c #765C55",
"7. c #775C55",
"8. c #775C56",
"9. c #795A53",
"0. c #785B54",
"q. c #785C55",
"w. c #785D55",
"e. c #785D56",
"r. c #9D543E",
"t. c #4E18A6",
"y. c #832FC3",
"u. c #B64EF1",
"i. c #D4B482",
"p. c #EFE4B7",
"a. c #EBACF8",
/* pixels */
". . . . . . , , > . . X . . . . > > > > > > . . > > . X + + + . ",
". . o + % + l m . . X . . X . . 3 m m w 1 1 + o m m . ; 1 ; # . ",
"+ + w I m L m l l 8 1 1 t l > 8 L z m i . + q l m d L O.#.%.w.w.",
". . I I I L m m L d . + 8 l i i 3 L d d > 3 z m x L z { 7.4.w.w.",
", I L L L l m C d l > 8 z L l l L z l l       l l z { I *.%.7.7.",
", I I I L z m m m l i s t L m z z L L     i.i.  m z L L  . .7.w.",
", I m L L I L C l m     L z z L d z z   i.i.i.r.      m L I w.5.",
", U z z L L     L   u.  L l z z L L L   i.p.i.    p.r.  l m 5.w.",
". - L m z m   u.  u.a.  L z z L m m m   p.i.i.  u.i.p.  L L :.7.",
"+ + L m L l   u.  u.a.    m L L L m   r.p.i.    p.u.p.  l m *.4.",
"> m l z L l L   a.a.u.a.  m l m m L   i.p.i.i.p.p.u.p.  z z 7.7.",
"> m l m z z z   u.u.u.y.  m m L L   i.i.i.p.p.p.i.    m l L &.7.",
". . i d l l L d   u.y.y.u.  L z   r.i.p.p.p.p.i.  L L L m L z :.",
". % q 8 i z x m m   y.u.y.u.    t.t.y.i.p.i.i.  z L d x m x D :.",
". 3 8 e w z l m m m   y.t.y.  t.y.y.y.u.i.i.  L L z z z d z w.5.",
"+ 8 L z Z L m m m m m   y.  r.r.r.u.a.y.    m m l z z L L L 5.w.",
"% 1 D m d x m m m l L     r.i.p.i.r.u.y.  L z l m L z m L L d >.",
"- > D m L m m l m l l   i.i.i.r.p.r.y.    d z L l L L z L z z >.",
"> L D m L L L         r.i.    p.i.r.  m z L z z z L L z z L :.5.",
"> L m m L L     i.i.t.y.  p.p.p.    m m L d z L l m z L l L =.w.",
"> L z l z z   p.i.r.r.    u.p.p.  m L d L z L z z L L L z z 5.5.",
"> m L z z L   p.i.i.i.  p.u.p.i.  m x m z L z L h z z L L z *.w.",
". . l L U L   p.p.p.r.  p.p.u.  m L l m L z L L L z z z L L L :.",
". . L L L l L   p.r.i.r.  p.  z m L m l z m d L x D L d z z z >.",
". X z z L L '   p.p.r.i.r.    L z z L z L L z L L z z L L L z >.",
". . L I L L z z   p.p.r.p.p.  z l L L l m x D z L L L ' ' ' L >.",
". : z I l L m L I     p.p.  ' L L z L z m L z L z z d O.#.%.7.w.",
"X = z L m z L ' { '       L L z L z L L z z z z z L L { 7.7.7.w.",
". * z L m m z O.#.%.O.L z L L L I z L l L z d L l l ` ` *.#.w.7.",
"% + z L L z L { 7.5.+.L L l z L L z m z z L L L L L I I  . .7.w.",
"7.5.:.:.*.w.' I *.#.7.1.L z @.;.9.:.:.&.w.5.z L :.:.&.7.7.w.w.7.",
"7.7.7.w.7.7.>.>.>.>.7.7.>.:.:.&.w.5.w.5.7.5.:.>.7.7.7.7.7.7.7.7."
};
