/* XPM */
static char *_96fd24f9142483efbe46c8ef821390e3WCAl1f2T907aMJp[] = {
/* columns rows colors chars-per-pixel */
"32 32 14 1 ",
"  c black",
". c #131313",
"X c #181818",
"o c #202020",
"O c #282828",
"+ c #313131",
"@ c #393939",
"# c #B2533A",
"$ c #5A11AB",
"% c #982BC8",
"& c #D14DF6",
"* c #E0B580",
"= c #F4E5B6",
"- c #FFAEFB",
/* pixels */
"+OOOo.oX..X.@+o..ooOOoXo@O...XoO",
"OoOoXX@Ooo.X@OO@.XoooO.@O+OX..oO",
"Oo...@+@+OoXXOoOoX.....o+OOoXoXo",
"o.X@OO@+@+XoXOO+oXX      ooO.X.X",
".X@O+O+O  oOoXOOX.. #***# O .XXX",
"XoO@OO@ - O+O.X.X.o %%%%*# = Ooo",
"XOO  oO & OO+O..X.@ #*=*% %=# +O",
"oXO &  &- @++OX..O+ *=** =&*= OO",
"X.o &- &- O@OX..Xo #*=*#*==&= oo",
".X.o ---&- +O.X+OX *==**===&= X.",
"o.XX &-&&- OXXOO+ #*=*#====%* O@",
"OoX.. &&&%- X.O+O **=*====*  o@o",
"oOX.XX &%%&& XXO #*=*===*  XoOO+",
"Oo.X..X %&&%&   $$%*==** oXO+O@O",
"OX...o.. %%$%$ $%%%&*** XXX@O+OO",
"o.+oOoOX. $$$ %&&%&-%* oX+OXoO@O",
"XX@OOOOoXX   ####&-%$ OX+O@oXoOo",
"X@OO+OoOX.X #*=**#&% X.XOoooXX.X",
".+o+O@OOo  ***#==#% X.X.oooOoX.X",
"OOO@+O+  #**##==*# OX..X.X.X..X.",
"oO+OO  %%$# #===* oo.X.oO+OX.X..",
"O@O  #**$  &===* oOX.XOO@OooX.X.",
"O+@ =**## =&&== XX...XoO+ooO...X",
"+OO =****# =&=* .X..XOo+@O+Oo.Xo",
"O++ =*==#* ==& ...XX.oo@OoOX.Xoo",
"OoOO ==*=#* =& +O++oXOO+OoX@OXoO",
"oOoo ==#*#* = +@O+OOOXXO+ooO+o.O",
".X.X. ==#*=#= @O+O@+O+.oOXO+@o..",
".oX..X ==##== O@+@+O+OX...@oOoXX",
"OO+OX.X  === .@+O+OOoo.X.oOooX.+",
"@++OOX.oO    XooOO+OoOX..X.X..@O",
"O@O+o.XXoOoX..XXooOoOo..XX..X.O+"
};
