/* XPM */
static char *_645bbe5a2a64d288412bdf8330bce808MGBOszl3MsvZHDY[] = {
/* columns rows colors chars-per-pixel */
"96 32 139 2 ",
"   c gray11",
".  c #1E1E1E",
"X  c #1F1F1E",
"o  c gray12",
"O  c #201C1C",
"+  c #211E1E",
"@  c #201F1F",
"#  c #221F1F",
"$  c #202020",
"%  c #212020",
"&  c #232020",
"*  c #232322",
"=  c #242121",
"-  c #252221",
";  c #252222",
":  c #252322",
">  c #272222",
",  c #262323",
"<  c #282222",
"1  c #2A2626",
"2  c #2C2624",
"3  c #2C2626",
"4  c #2F2929",
"5  c #302925",
"6  c #302929",
"7  c #322828",
"8  c #322928",
"9  c #322929",
"0  c #322A28",
"q  c #332B2B",
"w  c #362A29",
"e  c #342B2A",
"r  c #362B2A",
"t  c #312C29",
"y  c #322D29",
"u  c #312C2A",
"i  c #322D2A",
"p  c #342C2B",
"a  c #372C2C",
"s  c #362D2D",
"d  c #372E2C",
"f  c #382D2B",
"g  c #382D2C",
"h  c #3A2E2E",
"j  c #3A302C",
"k  c #3E312F",
"l  c #3F3331",
"z  c #403332",
"x  c #433433",
"c  c #443434",
"v  c #443534",
"b  c #453534",
"n  c #473534",
"m  c #453634",
"M  c #453635",
"N  c #463634",
"B  c #463635",
"V  c #463735",
"C  c #4A3734",
"Z  c #493636",
"A  c #493736",
"S  c #4A3736",
"D  c #4C3736",
"F  c #4A3837",
"G  c #4B3837",
"H  c #4B3937",
"J  c #4D3837",
"K  c #4D3B36",
"L  c #4D3C37",
"P  c #4E3C37",
"I  c #493938",
"U  c #4B3938",
"Y  c #4C3938",
"T  c #4E3938",
"R  c #4C3B39",
"E  c #4F3B39",
"W  c #54403B",
"Q  c #57403E",
"!  c #59413C",
"~  c #5A423E",
"^  c #5E4541",
"/  c #614743",
"(  c #624742",
")  c #634943",
"_  c #684B44",
"`  c #684B45",
"'  c #6B4B45",
"]  c #684B46",
"[  c #694C45",
"{  c #6E4F49",
"}  c #6F4F49",
"|  c #724F49",
" . c #69554B",
".. c #70504A",
"X. c #73514C",
"o. c #77544E",
"O. c #795550",
"+. c #7C5650",
"@. c #7F5952",
"#. c #815A52",
"$. c #815B53",
"%. c #835B53",
"&. c #845A52",
"*. c #845B53",
"=. c #825C53",
"-. c #805C54",
";. c #815C54",
":. c #845C54",
">. c #826759",
",. c #80685A",
"<. c #87796C",
"1. c #967768",
"2. c #9B7A6A",
"3. c #9D7B6A",
"4. c #9D7C6C",
"5. c #907F71",
"6. c #947E72",
"7. c #A07E6E",
"8. c #A17F6E",
"9. c #978275",
"0. c #AD8875",
"q. c #A08C7C",
"w. c #A58D7E",
"e. c #B08A77",
"r. c #B38A77",
"t. c #B28C78",
"y. c #B28C79",
"u. c #B38D79",
"i. c #B48C79",
"p. c #B58D79",
"a. c #B58D7A",
"s. c #B68E7A",
"d. c #B29A89",
"f. c #C1A895",
"g. c #C6AD99",
"h. c #C8AF9B",
"j. c #D8BEA7",
"k. c #D9BEA9",
"l. c #DBC0A9",
/* pixels */
"s.s.s.s.. X u u ,.p.s.s.s.s.s.s.p.p.    p.s.s.s.s.s.    s.s.s.s.s.s.s.s.  X u u ,.p.s.s.s.s.s.s.s.s.    s.s.s.s.s.s.    s.s.s.s.s.s.s.s.  X u u ,.s.s.s.s.s.s.s.s.s.    p.s.s.s.s.s.    s.s.s.s.",
"s.s.s.s.X X u u p.s.s.s.s.s.s.s.r.r.O   s.s.s.s.s.s.    s.s.s.s.s.s.s.s.X $ u y p.s.s.s.s.s.s.s.t.e..   s.s.s.s.s.s.    s.s.s.s.s.s.s.s.& X u u s.s.s.s.s.s.s.s.s.0.O   s.s.s.s.s.s.    s.s.s.s.",
"s.s.s.s.  . 3.3.>.s.s.s.s.s.s.s.9.7.    p.p.s.s.s.s.    s.s.s.s.s.s.s.s.  X 4.3.,.p.s.s.s.s.s.s.7.2.    s.s.s.s.s.s.    s.s.s.s.s.s.s.s.  . 4.3.,.y.s.s.p.s.s.s.9.3.    s.p.s.s.s.s.    s.s.s.s.",
"s.s.s.s.  [ [ N N l l d m m m m j j j N C m x k d N K [ [ W N N _ _ N m l l d V V N N j j j m m m l x f m K [ [ W V m m m m m m l f m m m m j j j N N x x z f N P ' _ W N m C N m m m   s.s.s.s.",
"s.s.s.s.  _ y y y y y y u y y y y y y y y y y y y y y y y y y y y y y y u y y y y y y y y y y y u y y y y y y y y y y y u y y y y y y y y y y y u y y y y y y y y y y y y y y y y y V . y.s.s.s.",
"s.s.s.s.. _ y y y y y y u y y y y y y y y y y y y y y y y y y y y y y y u y y y y y y y y y y y y y y y y y y y y y y y u d y y y y y y y y y y y y y y y y y y y y y y y y y y y y V X 4.0.s.s.",
"s.r.y.7.. _ u u y y y y y y y y y y y y y y y y y y y y y y y y y y y y y y y y y y y y y y y y y y y y y y y y y y y y y y y y y y y y y y y y y y y y y y y y y y y y y y y y y y m    .1.y.s.",
"g.f.g.q.  K u u y y y y y y y y y y y y y y y y y y y y y y y y y y y y y y y y y y y y y y y y y y y y y y y y y y y y y y y y y y y y y y y y y y y y y y y y y y y y y y y y u u m   & 9.k.l.",
"d.9.6.w.  K y y y y y y y y y y y y y y y y y y y y y y y y y y y y y y y y y y y y y y y y y y y y y y y y y y y y y y y y y y y y y y y y y y y y y y y y y y y y y y y y y y y y X   <.j.l.k.",
"O.G Z ' C K y y y y y y y y y y y y y y y y y y y y y y y y y y y y y y y y y y y y y y y y y y y y y y y y y y y y y y y y y y y y y y y y y y y y y y y y y y y y y y y y y y y y +  .| ! %.%.",
"U U G U x m y y y y y y y y y y y y y y y y y y y y y y y y y y y y y y y y y y y y y y y y y y y y y y y y y y y y y y y y y y y y y y y y y y y y y y y y y y y y y y y y y y y u N D Y Y Z K ",
"Y Z U Y K m y y y y y y y y y y y y y y y y y y y y y y y y y y y y y y y y y y y y y y y y y y y y y y y y y y y y y y y y y y y y y y y y y y y y y y y y y y y y y y y y y y y 6 Z K Y G G Z ",
".   O .   m u y y y y y y y y y y y y y y y y y y y y y y y y y y y y y y y y y y y y y y y y y y y y y y y y y y y y y y y y y y y y y y y y y y y y y y y y y y y y y y y y y y y m d e < +   ",
"        . m d y y y y y y y y y y y y y y y y y y y y y y y y y y y y y y y y y y y y y y y y y y y y y y y y y y y y y y y y y y y y y y y y y y y y y y y y y y y y y y y y y y y m F D 6 O   ",
"%.%.%.%.*.m y y y y y y y y y y y y y y y y y y y y y y y y y y y y y y y y y y y y y y y y y y y y y y y y y y y y y y y y y y y y y y y y y y y y y y y y y y y y y y y y y y y y N ) 6 . .   ",
"%.%.%.%.*.m y y y y y y y y y y y y y y y y y y y y y y y y y y y y y y y y y y y y y y y y y y y y y y y y y y y y y y y y y y y y y y y y y y y y y y y y y y y y y y y y y y y y Z o.< 6     ",
"Z K G G G j u u y y y y y y y y y y y y y y y y y y y y y y y y y y y y y y y y y y y y y y y y y y y y y y y y y y y y y y y y y y y y y y y y y y y y y y y y y y y y y y y y u u . G O & Y G ",
"m Z G G G h y y y y y y y y y y y y y y y y y y y y y y y y y y y y y y y y y y y y y y y y y y y y y y y y y y y y y y y y y y y y y y y y y y y y y y y y y y y y y y y y y y u u . G = = Y D ",
"e x U G K j y y y y y y y y y y y y y y y y y y y y y y y y y y y y y y y y y y y y y y y y y y y y y y y y y y y y y y y y y y y y y y y y y y y y y y y y y y y y y y y y y y y y & G 2 6 x m ",
"+ a G G F X y y y y y y y y y y y y y y y y y y y y y y y y y y y y y y y y y y y y y y y y y y y y y y y y y y y y y y y y y y y y y y y y y y y y y y y y y y y y y y y y y y y y m G = l d d ",
". .       X u u y y y y y y d u y y y y y y y y y y y y y y u u y y y y u y y y y y y y u d y y y y y y y y y y y y y y y y y y u y y y y y y d y y y y y y y y y y y y y y y y y y N = & 6 . . ",
".       + X y y u u y y y y y u y y y u y y y y u u y y y y y u y y y y u u y y y y y y u u y y y y y y y y d u y y y y y y y y u u y y y y y u y y y y y y y y y y y y u u y y y y Z   & = . $ ",
"%.=.*.+.< X X X . j j j f X . m j j X X X X X X X X X m m X . + X X X X j j j j X + N j j . + . X . X X X X m m X X   j j j X m j j j X . m h j X X X X X X X + X m C X X X j j j + m *.%.@.| { ",
"%.%.=.X.a h ^ [ %.=.&.=.*.=.%.%.*.*.*.*.- ! =.*.*.=.*.*.*.*.%.%.=.*.=.X.a h ^ _ =.=.=.=.%.%.%.*.=.=.*.*.- ! =.*.=.*.%.%.%.%.=.%.&.=.=.X.a h ^ ' =.*.*.=.*.=.*.=.*.=.*.=.= ! =.&.=.=.*.=.%.%.%.%.",
"F Y Z Y Z K G Y Y G G G Y K G G F F K Z & 6 ! ) Y Y G G G G G G K Z G Y G D D Y U G G G G G G G G G G G = e E / K F G G G G G G G G G Y G D G Y Y G G G G G G G K G G G & 6 ! / Y Y Y G G G G G ",
"K Z Y Y h 6 G G Y G G G Z U G G K F G K     Y Y Y Y G G G G G G G K Y Y h 6 G K G G G G G G G G G G G G . + E Y K Y G G G G G G G Y Y Y h e G G Y G G G G G G G G G G G     Y Y G Y G G G G G G ",
"G Y Y K = , G G G G G G Y D G Y     G G     U U < = G G G G G G G Y G G = < Y G K G D Y G G G G     K Z     U U < = Y G G G G G G Y G D = = Y K G G G G G G F K     G G     Y Y < = G G G G G G ",
"Y Y G G   O Y G G G G G Y Y Y Y     G G     U U q a G Y G G G G Y Y G Y . O Y G Y Z U Z G Y E E     F Z     U U q q G Y G G G G Y Y G U   O Y F G G G G G U E E     G G     U Y q a G Y G G G G ",
"G Z 7 O                   + 7 2 &             = G Z 7 O       G G Z 7 O                   . 5 2 &             * Y Z 7 O       G K Z 7 O                   . 5 3 +             = Z F 5 O       Z ",
"h e .                   . . . . e +         & & h 6 .         G h 6 .                   . . . . e +         & & h 6 .         G h 6 .                   . . + . e +   .     & & h 6 .         K ",
"= < 6 O     Z K           5 *.%./ U U U G U   + K G 4           = = 6 O     G G           5 -.%.) Y D G U U   + Z K 6 O         = , 6 O     G G           5 %.%./ Y Y Y Z U . + U U 6 O         ",
"    .       Y E         3 = ! K &.%.%.-.%.-.    %.%..             + .       G E       . 3 = ! Y %.-.%.%.@.%.    %.%.+             O .       Y Y         3 = ! K *.-.-.@.-.%.    %.&..           "
};
