/* XPM */
static char *_23e7522126f427aca6db4687557a52186OGA0IcU0lcI0iT[] = {
/* columns rows colors chars-per-pixel */
"32 32 16 1 ",
"  c black",
". c #060606",
"X c gray7",
"o c #131313",
"O c #181818",
"+ c #1B1B1B",
"@ c #202020",
"# c #282828",
"$ c gray16",
"% c #313131",
"& c #393939",
"* c gray28",
"= c gray29",
"- c gray31",
"; c gray32",
": c #555555",
/* pixels */
"%###@o@OooOo&%@oo@@##@O@&#oooO@#",
"#@#@OO&#@@oO&##&oO@@@#o&#%#Ooo@#",
"#@ooo&%&%#@OO#@#@Oooooo@%##@O@O@",
"@oO&##&%&%O@O##%@OOooOoO@@@#oOoO",
"oO&#%#%###@#+o##Ooo@%#+@O@#@oOOO",
"O@#&##&%%@#%:*=oOo@&#%#%#OOoO#@@",
"O##@#@##O@-;##=oOo&%%#;:@oOo%#%#",
"@O#####%#-&&&&=oo#%:;;#%:#oo#%##",
"Oo@#@@%;;&&#&#&=o;:#&&&&&;o###@@",
"oOo@##:#%&&###&:;#&#%&&$&#-#+OOo",
"@oOO;;&&&#&#&#&&#&&&&$&#&&&;O%#&",
"#@=*#&&&######&&%&&#&$$$#&%#;@&@",
"@-#&#&&##+##++$&&&##$$$$+&###-#%",
"#-####&$+++#+o#&####+$$++$###;&#",
"#O-#O##$+#+++o#$$$#$+#+++#O#-%##",
"Oo%=+#+$++o++o##$+$$+++o++O;O#&#",
"OO::+++OoOoooo+#$+$+OO+ooO;@O@#@",
"O:&&+++Ooooo.o+O++++oOooOo;+OOoO",
"o;&%++ooo oo..oO+o+oooo..o&;-OoO",
"#;#&o.oO...o..oOooo.ooo...&&%*Oo",
"O:##o.o.......ooo.o.o.....#&&#=o",
"#&--=....   . ..o........+#&##=o",
"#%&#&-..      ..... ..  .++##=oO",
"%##%#%;    ;-*=...     : +Oo;oO@",
"#%%@@#@:=*=#@Oo*     =-&:-:=oO@@",
"#O##OOo@oOOoOO@%-;  =##%#OO&#O@#",
"@#@@ooOO&#oOo@%&#%--#OO#%@@#%@o#",
"oOoOoOo%#%#Oo%&#%#&%#%o@#O#%&@oo",
"o@OooOo&###oO@#&%&%#%#Oooo&@#@OO",
"##%#OoO#%&%#Oo&%#%##@@oOo@#@@Oo%",
"&%%##Oo@#%##oO@@##%#@#OooOoOoo&#",
"#&#%@oOO@#@OooOO@@#@#@ooOOooOo#%"
};
