/* XPM */
static char *_07a3e254ff047799c1f8168708067dfhNqo4UD7TTNLXPqb[] = {
/* columns rows colors chars-per-pixel */
"32 32 112 2 ",
"   c #222222",
".  c #232323",
"X  c #242323",
"o  c #252323",
"O  c gray14",
"+  c #262525",
"@  c #272525",
"#  c gray15",
"$  c #292525",
"%  c #282626",
"&  c #292727",
"*  c #2C2828",
"=  c #2D2929",
"-  c #2E2A29",
";  c #2D2A2A",
":  c #322C2C",
">  c #332D2C",
",  c #342E2D",
"<  c #362F2E",
"1  c #383130",
"2  c #393130",
"3  c #3A3130",
"4  c #3B3332",
"5  c #3C3332",
"6  c #3D3433",
"7  c #3E3534",
"8  c #403736",
"9  c #413736",
"0  c #423736",
"q  c #423737",
"w  c #433837",
"e  c #433938",
"r  c #443938",
"t  c #463A39",
"y  c #473A39",
"u  c #463B3A",
"i  c #473B3A",
"p  c #473C3B",
"a  c #483A39",
"s  c #4B3A39",
"d  c #483B3A",
"f  c #493B3A",
"g  c #483B3B",
"h  c #493B3B",
"j  c #4A3B3A",
"k  c #4C3A3A",
"l  c #483C3A",
"z  c #493C3A",
"x  c #483C3B",
"c  c #493C3B",
"v  c #493D3B",
"b  c #4A3C3B",
"n  c #4B3C3B",
"m  c #483C3C",
"M  c #493C3C",
"N  c #483D3C",
"B  c #493D3C",
"V  c #493D3D",
"C  c #4A3C3C",
"Z  c #4B3C3C",
"A  c #4A3D3C",
"S  c #4B3D3C",
"D  c #4A3D3D",
"F  c #4B3D3D",
"G  c #4B3E3C",
"H  c #4A3E3D",
"J  c #4B3E3D",
"K  c #4C3E3C",
"L  c #4D3E3D",
"P  c #62232F",
"I  c #455B1D",
"U  c #4E6C1B",
"Y  c #4F403E",
"T  c #4F413F",
"R  c #50403E",
"E  c #51413F",
"W  c #4F4140",
"Q  c #534140",
"!  c #514241",
"~  c #524240",
"^  c #524241",
"/  c #544440",
"(  c #564642",
")  c #5B4945",
"_  c #5C4946",
"`  c #5F4C46",
"'  c #5F4C48",
"]  c #614C47",
"[  c #634F4B",
"{  c #644D49",
"}  c #654E4A",
"|  c #644F4B",
" . c #6D544F",
".. c #6E564F",
"X. c #6E5550",
"o. c #6D5650",
"O. c #725852",
"+. c #775953",
"@. c #745A53",
"#. c #765A54",
"$. c #765B54",
"%. c #765C55",
"&. c #775C55",
"*. c #775C56",
"=. c #795A53",
"-. c #785B54",
";. c #785C55",
":. c #785D55",
">. c #785D56",
",. c #8F4029",
"<. c #C56025",
"1. c #7D9454",
/* pixels */
"            > >     O O         : > > > : : .   : :   O O O X   ",
"    X O $ O i g               . , n i 4 , , O . t n   - , - $   ",
"O O 5 M g n g i t 5 , , 5 p : 1 n i p w . . , p p t p ( ] ] :.:.",
"    M M M n g g p t . . 3 n w 7 , i w i : 1 n p a n a E %.$.$.:.",
"> n n n n i g s w t : 4 p n p p M n a p 0 0 , n i p T n { ] %.:.",
"; M M M n p g g t n w w 7 n a p p n g g i i n p g p n n ! ! %.:.",
"> M i n n n n s p a n p n p p n p n i g g p p n a n g g n M :.-.",
"> M p p n n n g p p n n a p n p p n i p a n n p a p i p n M @.%.",
". ; n n n n i i <.<.n g a n p n p n t n p n <.<.n t p p n p  .$.",
"O O p p p t i i <.<.n a p t $.$.$.:.$.$.$.$.I <.p n t n t n { $.",
": g g n p n i i <.<.    <.<.<.<.<.<.<.<..   I <.I 1.n p p p $.:.",
": i i i n a g i <.<.    I I 1.I <.<.<.<.    <.U U I U U p n { :.",
"    w w n I I   <.I           I .           <.I     I t I g n  .",
"  $ $.U U       <.I                         <.<.  . I   $.:.n  .",
"  p   I         <.U     <.<.<.<.<.<.<.<.    <.<.          . I $.",
"O n     1.      <.U     <.<.<.<.<.<.<.<.    <.<.          . U $.",
"$ a             I U                         ,.I             U  .",
"- p             ,.,.                        I ,.            a ..",
": p             ,.,.    ,.,.I I ,.I ,.,.    I ,.            n $.",
": i             I ,.    ,.I 1.,.,.,.1.I   . I ,.        I   n $.",
": n $.$.        I P                         P P         1.@.@.:.",
": g p n p .     P P                         P P       p t Y [ $.",
"    p n p $.U I P P     1.I I P P P P P     P P I I $.n p n p ..",
"    n n n i n p n P     I U P P P P P P     P t a I t n t p n ..",
"  . p p n n N p i i I n U U %.%.%.%.$.$.$.I U U p n n n n n p ..",
"    n n p n n p n p g a p a p n n n n p n a n p 1.n t T T T n ..",
"  ; p n i n n p n n p p n p n p n p n p p n t n p p t ( ` ] $.:.",
". ; p n g n g T E T n p n p n n p p n n p p n p p n n E %.$.:.:.",
". & p n g g p ( ` ] ( n n p n n n p n p n p t p g g F F { ` :.%.",
"$ O t n n p n E %.$.) n p i n n n p g p p n n n n n M F ^ ^ :.:.",
"$.$. . .| :.T n { ] :.O.n p ) | =. . .[ :.$.n n  . .| :.@.:.:.%.",
":.%.:.:.$.%... ... .:.%... . .[ :.$.:.$.$.$. . .%.:.@.:.>.:.%.:."
};
