/* XPM */
static char *result[] = {
/* columns rows colors chars-per-pixel */
"32 32 112 2 ",
"   c gray11",
".  c #1E1E1E",
"X  c #1F1E1E",
"o  c gray12",
"O  c #211E1E",
"+  c #201F1F",
"@  c #212020",
"#  c gray13",
"$  c #232020",
"%  c #242121",
"&  c #262020",
"*  c #252222",
"=  c #292323",
"-  c #2B2424",
";  c #2A2626",
":  c #2C2624",
">  c #312828",
",  c #322928",
"<  c #332A29",
"1  c #362B2A",
"2  c #382D2C",
"3  c #392D2C",
"4  c #3B2D2C",
"5  c #3B302E",
"6  c #3D302E",
"7  c #3E312F",
"8  c #3F3231",
"9  c #3A3838",
"0  c #413433",
"q  c #433433",
"w  c #443433",
"e  c #443434",
"r  c #453534",
"t  c #453635",
"y  c #463635",
"u  c #493736",
"i  c #4A3736",
"p  c #4C3736",
"a  c #483837",
"s  c #4A3837",
"d  c #4B3837",
"f  c #4B3937",
"g  c #4D3837",
"h  c #4C3937",
"j  c #4E3837",
"k  c #493938",
"l  c #4B3838",
"z  c #4B3938",
"x  c #4B3939",
"c  c #4B3B39",
"v  c #4D3838",
"b  c #4C3938",
"n  c #4C3939",
"m  c #4E3938",
"M  c #4F3938",
"N  c #4E3939",
"B  c #4F3939",
"V  c #4C3B38",
"C  c #4C3B39",
"Z  c #4D3B39",
"A  c #4F3B39",
"S  c #4C3B3B",
"D  c #4D3B3B",
"F  c #4F3B3B",
"G  c #4E3C39",
"H  c #4D3C3A",
"J  c #4E3C3A",
"K  c #503736",
"L  c #513737",
"P  c #503C39",
"I  c #513C3A",
"U  c #533E3C",
"Y  c #533F3D",
"T  c #533F3E",
"R  c #553E3C",
"E  c #563F3D",
"W  c #593F3E",
"Q  c #375B0E",
"!  c #3B6C03",
"~  c #55403F",
"^  c #57403E",
"/  c #57403F",
"(  c #59423E",
")  c gray30",
"_  c #5B4440",
"`  c #614743",
"'  c #624744",
"]  c #664B44",
"[  c #664B46",
"{  c #684B45",
"}  c #6C4C47",
"|  c #6A4E49",
" . c #6B4E49",
".. c #6D4D48",
"X. c #76534E",
"o. c #75554F",
"O. c #77554E",
"+. c #77544F",
"@. c #7B5751",
"#. c #7E5A52",
"$. c #825952",
"%. c #805A53",
"&. c #805B53",
"*. c #835B53",
"=. c #845A52",
"-. c #805C54",
";. c #815C54",
":. c #815C55",
">. c #825C54",
",. c #825D54",
"<. c #825D55",
"1. c #73954F",
/* pixels */
"            > >     . .         > > > > > >     > >   . $ @     ",
"  . . O & # s d     .     .     2 s i 7 1 < . . d d   : , : $   ",
". . 6 n v b p s i 7 1 < 8 a > 2 z d d r   X 2 s d d d _ [ { ,.>.",
"  . n S S N g b d r   X 4 k e q 3 s y u > 2 z d d d d ^ ;.&.;.<.",
"> b b b g g L K y u > 5 z b d s z d d s e q 3 s d d Y G } ] >.;.",
"> n F J h z b d d s e t 0 b g z g b d d d s b b d d d A ~ / :.<.",
"> Z d m v S n K d g b z d g g m d b d d d b d b d d d d g H >.;.",
"> n z b m M b d j d N b f d z z z b g z d j j b g z d b d b #.;.",
"  = d g v j d d j j Q j f z ! Q d g 1.g d b Q j g g d z z b X.-.",
"% @ f d c d d Q j j d + + + + + + + + + + + + 1.z d d b d g ..*.",
"> g d Q z g + + + + + 9 9 9 9 9 9 9 9 9 9 9 9 + ! + Q b f d -.;.",
"> d s ! + + 9 9 9 9 9 ) ) ) ) ) ) ) ) ) ) ) ) 9 9 9 + Q Q z | *.",
"    w + 9 9 ) ) ) ) ) ) ) ) ) ) ) ) ) ) ) ) ) ) ) ) 9 9 + g z O.",
"1.* + 9 ) ) ) ) ) ) ) ) 9 9 9 9 9 9 9 9 9 9 ) ) ) ) ) ) 9 + d O.",
"  + 9 ) ) ) 9 9 9 9 9 9 ) 1.) ) ) ) ) ) ) ) 9 9 9 ) ) ) 9 + Q ;.",
"o + 9 ) ) 9 ) ) ) ) ) ) ! ! + + + + + ) ) ) ) ) ) 9 ) ) 9 + ! ;.",
"% + 9 ) ) 9 ) ) ) ) ) + + ! Q + + + + + + ) ) ) ) 9 ) ) 9 + 1.O.",
"- + 9 ) ) 9 ) ) ) ) ) + + + Q ) ) ) + + + ) ) ) ) 9 ) ) 9 + d O.",
"> + 9 ) ) ) 9 9 9 ) ) ) ) ) ) ) ) ) ) ) ) ) 9 9 9 ) ) ) 9 + d -.",
"> ! + 9 9 ) ) ) ) 9 9 9 ) ) ) ) ) ) ) ) Q 9 ) ) ) ) ) 9 9 + d *.",
"> ! + + + 9 ) ) ) ) ) ) 9 9 9 9 9 9 9 Q ! ) ) ) ) ) 9 + + ;.-.;.",
"> Q d Q Q + 9 9 9 ) ) ) ) ) ) ) ) ) Q ! ) ) ) 9 9 9 + d f c  .*.",
"    d Q C + + + + 9 9 9 ) ) ) ) ) ) ) ) ) ) 9 + + + ;.d g b z O.",
"    Z 1.V Q Q ! d + + + 9 9 9 9 9 9 9 9 9 9 + d g Q d d d d d O.",
"  . z z m Z c g g d Q d + + + + + + + + + + ! ! z d d b A A d O.",
"    m Z g M v d d d d g z g b b d j B g g j g z 1.m d U E U A O.",
"  ; b C l n g C A A d d b g J v V l D d d z d m z b d _ [ { ,.>.",
". ; z N g b j R E U A d C z Z j c x n j c z g z z b g ^ ;.&.;.<.",
"  * d g g v z _ [ { ( m n z m j Z d g g j z d b d g I P } ] >.;.",
"% @ f d z z z W ;.&.` Z C d g m m f d z d d b b f d z A ~ / :.<.",
";.%.O.o.| =.T G } ] >.@.m f ' | $.O.o.| *.;.d g O.o.| *.;.<.>.;.",
";.;.;.*.-.;.O.O.O.O.:.<.O.O.+.| *.;.*.-.;.;.O.O.;.*.-.;.;.;.;.;."
};
