/* XPM */
static char *_dc9061d88c249a7982e0c4182a8c513IhCO6LtbSWg31UUG[] = {
/* columns rows colors chars-per-pixel */
"32 32 13 1 ",
"  c #131313",
". c #181818",
"X c gray11",
"o c #202020",
"O c #282828",
"+ c #313131",
"@ c #393939",
"# c #5C4435",
"$ c #416475",
"% c #598B9B",
"& c #6FAFA8",
"* c gray86",
"= c gray96",
/* pixels */
"+OOOo o.  . @+o  ooOOo.o@O   .oO",
"OoOo..@OXXXXXXXXXXXXXX @O+O.  oO",
"Oo   @+@XXXXXXXXXXXXXX o+OOo.o.o",
"o .@OOXX$$$$$$$$$$$$$$XXoooO . .",
" .@O+OXX$$$$$$$$$$$$$$XX.oOo ...",
".oO@XX$$%%%%%%%%%%%%&&XXO.. .Ooo",
".OOoXX$$%%%%%%%%%%%%&&XXo . +O+O",
"o.OOXX$$%%%%%%%%%%%%&&XX@O  O+OO",
". oOXX$$%%%%%%%%%%%%&&XXOo.OOOoo",
" . oXX$$%%XXXXXXXXXXXXXXo oOo.. ",
"o ..XX$$%%XXXXXXXXXXXXXXO  ..+O@",
"Oo. XX%%%%%%%%XXXXXX&&XX+o. oo@o",
"oO. XX%%%%%%%%XXXXXX&&XXoO .oOO+",
"Oo .XX%%%%%%%%$$XX%%%%XXOo.O+O@O",
"O.  XX%%%%%%%%$$XX%%%%XX...@O+OO",
"o +oOoXXXX%%%%$$XXXXXXXXXXXXoO@O",
"..@OOOXXXX%%%%$$XXXXXXXXXXXX.oOo",
".@OO+OoOXXXXXXXXXX========XXXX .",
" +o+O@OOXXXXXXXXXX========XXXX .",
"OOO@XXXXXXXX======******XX##XX. ",
"oO+OXXXXXXXX======******XX##XX  ",
"O@XX%%XX====******XXXXXXXX##XX. ",
"O+XX%%XX====******XXXXXXXX##XX .",
"+OXX%%XX****XXXXXX%%XX$$XX##XX.o",
"O+XX%%XX****XXXXXX%%XX$$XX##XXoo",
"OoOOXXXXXXXXXXXX$$$$XXXX##XXO.oO",
"oOooXXXXXXXXXXXX$$$$XXXX##XX+o O",
" . . .XX$$XX +XX$$XXXXXXXXO+@o  ",
" o.  .XX$$XX.oXX$$XXXXXXXX@oOo..",
"OO+O. XXXX+O. XXXXOOoo . oOoo. +",
"@++OO.XXXXOO .XXXX+OoO.  . .  @O",
"O@O+o ..oOo.  ..ooOoOo  ..  . O+"
};
