/* XPM */
static char *cfdecf04614d4fb38d9487d2e8673f57aNN4Rvyy9ClNumPx[] = {
/* columns rows colors chars-per-pixel */
"32 32 85 1 ",
"  c #222222",
". c #232323",
"X c #252323",
"o c gray14",
"O c #262525",
"+ c #272525",
"@ c #292525",
"# c #282626",
"$ c #292727",
"% c #2D2929",
"& c #2E2A29",
"* c #2D2A2A",
"= c #322C2C",
"- c #332D2C",
"; c #3C3332",
": c #453837",
"> c #473B3A",
", c #4A3A39",
"< c #483B3A",
"1 c #493B3A",
"2 c #483B3B",
"3 c #493B3B",
"4 c #4A3B3A",
"5 c #4B3B3A",
"6 c #4C3A39",
"7 c #483C3A",
"8 c #483C3B",
"9 c #493C3B",
"0 c #493D3B",
"q c #4A3C3B",
"w c #4B3C3B",
"e c #483C3C",
"r c #493C3C",
"t c #483D3C",
"y c #493D3C",
"u c #483D3D",
"i c #493D3D",
"p c #4A3C3C",
"a c #4B3C3C",
"s c #4A3D3C",
"d c #4B3D3C",
"f c #4B3D3D",
"g c #4C3E3C",
"h c #4D3E3D",
"j c #4F403E",
"k c #51413F",
"l c #2F5264",
"z c #4F4140",
"x c #514241",
"c c #524240",
"v c #524241",
"b c #564642",
"n c #5C4946",
"m c #5F4C46",
"M c #5F4C48",
"N c #614C47",
"B c #634F4B",
"V c #644D49",
"C c #664E49",
"Z c #644F4B",
"A c #6D544F",
"S c #6E564F",
"D c #6E5550",
"F c #6D5650",
"G c #775953",
"H c #745A53",
"J c #765A54",
"K c #765B54",
"L c #765C55",
"P c #775C55",
"I c #775C56",
"U c #795A53",
"Y c #785B54",
"T c #785C55",
"R c #785D55",
"E c #785D56",
"W c #A54364",
"Q c #DC4A7B",
"! c #417089",
"~ c #509590",
"^ c #72D6CE",
"/ c #F78697",
"( c #C1F0EC",
") c #FDF7ED",
"_ c white",
/* pixels */
"                        -=  @o  ",
"  Xo@     WQQ/////       > &-&@ ",
"oo;r  WWWQQQ//^^^^^^()))  <bmNIE",
"  rr  WWQQQ//^^^^^^^((()  <cIKIE",
"-r8  WQQQQQ/lllll!!!!!!!    VmEI",
"-rr  WQQQ///lllll!!!!!!!     cIE",
"=r   WQQQ//^ll^^^^^^^^^^(())  EK",
"-r  WQQ////^ll^^^^^^^^^^(())  HE",
"    WQQ///~^ll^^ll^^!!^^!!()_  K",
"@  WQQ/ //~^ll^^ll^^!!^^!!()_  U",
"  WWQ//  ~^^ll^^l!^^!!^^!!()_  I",
"  QQ     ~^^ll^^l!^^!!^^!!()_  K",
"  Q/  < ~~^^ll^^l!^^!!^^!!()_  S",
"  Q/ e< ~^^^l!^^l!^^!!^^!!()_  S",
"  Q/ << ~^^^l!^^^^^^^^^^(())_ II",
"o /  8< ~^^^l!^^^^^^^^^^()))  EK",
"@   :6< ~^^^!!!!!!!!!!!!      <S",
"&-  8<< ~^^^!!!!!!!!!!!!   X <<S",
"=< rr8  ~^^^^^^^^^^^^^((  8888SK",
"=p<66g  ~^^^^^^^^^^^^^()  88<8VU",
"=<8<<8 lll!!!!!!!!!!!!^^^ g888EY",
"=<8r8g lll!!!!!!!!!!!!^^^X8<88ZU",
"  <g8<  ~^^^^^^^^^^^^^()  8<<88S",
"  r<8<  ~^^^^^^^^^^^^^()  <<<<8S",
" X888g  ~^^^^^^^^^^^^^((  <8gh<S",
"  rr8g  ~^^^^^^^^^^^^^((  <kkhgS",
" &rr<8  lll!   X    lll!  <bNNEY",
" &er<<  l!!!   <8   l!!! <<kIHEE",
"X$<<68  !!  X8<g88X !!   8hhVmII",
"@o8<rr8 !!  8<<888  !!  8888ccIE",
"IHSFBYc !!! 88nVHS  !!! SSBUKEEK",
"IEIYKKS    XSSSZYY      IUIKEEKE"
};
