/* XPM */
static char *_be07517e6214d5390d71dbcf4710fe07jQ8CxAat9Dg6o7g[] = {
/* columns rows colors chars-per-pixel */
"32 32 54 1 ",
"  c gray11",
". c gray12",
"X c #211E1E",
"o c #212020",
"O c #242121",
"+ c #252222",
"@ c #2B2424",
"# c #2A2626",
"$ c #2C2624",
"% c #312828",
"& c #322928",
"* c #312B2B",
"= c #342C2C",
"- c #393030",
"; c #4A3837",
": c #4B3937",
"> c #4B3B37",
", c #4D3837",
"< c #4F3837",
"1 c #4B3838",
"2 c #4B3B3B",
"3 c #4C3939",
"4 c #4D3B39",
"5 c #4F3B3B",
"6 c #513736",
"7 c #503C39",
"8 c #513C3A",
"9 c #533E3C",
"0 c #563F3D",
"q c #55403F",
"w c #57403E",
"e c #045165",
"r c #5B4440",
"t c #624744",
"y c #664B46",
"u c #6C4C47",
"i c #6E4D47",
"p c #6A4E49",
"a c #75554F",
"s c #77554E",
"d c #77544F",
"f c #7E5A52",
"g c #835B53",
"h c #815C54",
"j c #825C54",
"k c #825D54",
"l c #BE4165",
"z c #FD497E",
"x c #0D718B",
"c c #009691",
"v c #00D7CF",
"b c #FF8799",
"n c #ABF0EC",
"m c #FFF7ED",
/* pixels */
"      &&                &&  +X  ",
"    +o5       zzzbbbbb     #&$o ",
"  -551  cvvvvvvvzzzzbbbbbb  yykk",
" o7511  cvvvvvvvvvzzzzbbbb  gkkk",
"%515    eexxxxxxxxxzzzzzbbb  ykg",
"%17     eexxxxxxxxxxlzzzbbb  0kk",
"%1  cvvvvvvvvvvvvvxxllzzzbb   gk",
"&1  cvvvvvvvvvvvvvxxnlzzzbbb  ff",
"   cvveevvxxvvxxvvxxnnlzzzzb   k",
"+  cvveevvxxvvxxvvxxnnll zzbb  g",
"%  cvvexvvxxvvxxvvxxnnm  llzzb k",
"%  cvvexvvxxvvxxvvxxvnm     zb g",
"   cvvexvvxxvvxxvvxxvnnm 1  zb a",
"   cvvexvvxxvvxxvvxxvnnm 11 zz d",
" = ccvvvvvvvvvvvvvxxvnnm 11 lz k",
" -  ccvvvvvvvvvvvvxxvnnm 11  l g",
"+*      exxxxxxxxxxxvnnm 5;,   s",
"@&>     eexxxxxxxxxxvvnm 115  ;s",
"&,,521  cvvvvvvvvvvvvvnm  115 sf",
"&;,<,5  cvvvvvvvvvvvvvnm  5;1,ig",
"&;,;;4 eeexxxxxxxxxxxxvvv 4,;;kk",
"&,,;>, eeexxxxxxxxxxxxvvv ,<;;pk",
"  ;5,,  cvvvvvvvvvvvvvnm  ;;,,;s",
"  ,;5,  cvvvvvvvvvvvvvnm  ;;;;5s",
"  5;44  cvvvvvvvvvvvvvnm  >5;75s",
"  ,4,,  ccvvvvvvvvvvvvnn  >ww74s",
" #54,;  eexx        xxvv  ;wyykk",
".#;1,5, eexx   ,1   xxxv  ,wggkk",
" +;1,5,   xx  ,,55,   xv  77uykh",
"+X;51;;w  ex  ,,1111  xx 1,70wkk",
"hhadpgw4 eex ,tphddp xxx apkfkhf",
"hhkfkgas     sdphkkf     gfkkhkk"
};
