/* XPM */
static char *_6322c9c8a004cbcac0465f180cd2735I2kEYmF7rYLJ736M[] = {
/* columns rows colors chars-per-pixel */
"32 32 57 1 ",
"  c gray11",
". c gray12",
"X c #212020",
"o c #242121",
"O c #252222",
"+ c #2B2424",
"@ c #2A2626",
"# c #2C2624",
"$ c #312828",
"% c #322928",
"& c #3D302E",
"* c #483534",
"= c #4E3736",
"- c #4A3837",
"; c #4B3937",
": c #4D3837",
"> c #4B3838",
", c #4C3B38",
"< c #4F3B39",
"1 c #4C3B3B",
"2 c #4F3B3B",
"3 c #513736",
"4 c #503C39",
"5 c #533E3C",
"6 c #563F3D",
"7 c #55403F",
"8 c #57403E",
"9 c #57403F",
"0 c #045165",
"q c #5B4440",
"w c #624744",
"e c #664B44",
"r c #664B46",
"t c #684B45",
"y c #6C4C47",
"u c #6E4D47",
"i c #6B4E49",
"p c #76534E",
"a c #75554F",
"s c #77554E",
"d c #77544F",
"f c #7E5A52",
"g c #805B53",
"h c #835B53",
"j c #845A52",
"k c #825C54",
"l c #825D54",
"z c #825D55",
"x c #BE4165",
"c c #FD497E",
"v c #0D718B",
"b c #009691",
"n c #00D7CF",
"m c #FF8799",
"M c #ABF0EC",
"N c #FFF7ED",
"B c white",
/* pixels */
"      %%                %%  oX  ",
"    X     xccmmmmm       * #%#o ",
"  &2  xxxcccmmnnnnnnMNNN  2qrtzz",
" X22  xxcccmmnnnnnnnMMMN  *7zgzz",
"#22  xcccccm00000vvvvvvv    yrkg",
"%>2  xcccmmm00000vvvvvvv     6zz",
"%2   xcccmmn00nnnnnnnnnnMMNN  kk",
"#2  xccmmmmn00nnnnnnnnnnMMNN  fk",
"    xccmmmbn00nn00nnvvnnvvMNB  f",
"X  xccm mmbn00nn00nnvvnnvvMNB  g",
"% xxcmm  bnn00nn0vnnvvnnvvMNB  l",
"% cc     bnn00nn0vnnvvnnvvMNB  l",
"  cm  > bbnn00nn0vnnvvnnvvMNB  s",
"  cm >> bnnn0vnn0vnnvvnnvvMNB  s",
"  cm *2 bnnn0vnnnnnnnnnnMMNNB kk",
". m  2* bnnn0vnnnnnnnnnnMNNN  fk",
"X   *:; bnnnvvvvvvvvvvvv      ;s",
"#%  ;:; bnnnvvvvvvvvvvvv     >;s",
"%= 4>2  bnnnnnnnnnnnnnMM  2>>2pk",
"%2*32:  bnnnnnnnnnnnnnMN  ;;*=ug",
"$>;;;; 000vvvvvvvvvvvvnnn 222>fz",
"$=>>,2 000vvvvvvvvvvvvnnn *=;>iz",
"  ;22;  bnnnnnnnnnnnnnMN  ;;*2*s",
"  2;>=  bnnnnnnnnnnnnnMN  ;;:;2s",
"  >;22  bnnnnnnnnnnnnnMM  ;:2:;s",
"  >2*2  bnnnnnnnnnnnnnMM  ;8652s",
" #2>*2  000v        000v  ;8rtkk",
" #>2;;  0vvv   =;   0vvv 2;8kfkz",
" X:::2  vv   24:2;  vv   :44urkf",
"o.;:;;; vv  >*=:2;  vv  :*2287ll",
"zzssif5 vvv 2=wifss vvv ssizllfl",
"kzgfzzs     sssihkf     zzfzzflz"
};
