/* XPM */
static char *_1879d3898444fecdb83cffe7c9b9ec7wOTtECYJspelvigW[] = {
/* columns rows colors chars-per-pixel */
"32 32 55 1 ",
"  c gray11",
". c gray12",
"X c #211E1E",
"o c #212020",
"O c #262020",
"+ c #292323",
"@ c #2A2626",
"# c #2C2624",
"$ c #312828",
"% c #322928",
"& c #312B2B",
"* c #342C2C",
"= c #3E2D2C",
"- c #393030",
"; c #3B3030",
": c #443433",
"> c #4B3837",
", c #4B3B37",
"< c #4D3837",
"1 c #4B3838",
"2 c #4B3B39",
"3 c #4F3938",
"4 c #4F3B39",
"5 c #4F3B3B",
"6 c #4D3C3A",
"7 c #503C39",
"8 c #533E3C",
"9 c #55403F",
"0 c #57403E",
"q c #57403F",
"w c #045165",
"e c #5B4440",
"r c #624744",
"t c #664B44",
"y c #6C4C47",
"u c #6E4D47",
"i c #6A4E49",
"p c #6B4E49",
"a c #6D4D48",
"s c #75554F",
"d c #77554E",
"f c #77544F",
"g c #7E5A52",
"h c #835B53",
"j c #825C54",
"k c #825D54",
"l c #825D55",
"z c #BE4165",
"x c #FD497E",
"c c #0D718B",
"v c #009691",
"b c #00D7CF",
"n c #FF8799",
"m c #ABF0EC",
"M c #FFF7ED",
/* pixels */
"      %                  %  Oo  ",
"   XOo  zzzxxxxxxnnnnnnn   #%@o ",
"  ;55  vvbbbbbbbbbbmmMMMM  ettll",
" o56  vvbbbbbbbbbbbbmmmmMM  llll",
"%>5  wwwwwwwccccccccccccccc  tlj",
"$>5 wwwwwwwwcccccccccccccccc qjl",
"$5> wwvvvbbbbbbbbbbbbbmmMMcc >jj",
"$1> wwvvbbbbbbbbbbbbbbmmmMcc 5gg",
" +> wwvwwbbwwbbccbbccbmccMcc >sg",
"oo> wwvwwbbwcbbccbbccbbccMcc 5ah",
"%<> wwvwwbbccbbccbbccbbccMcc >ll",
"%>> wwvwwbbccbbccbbccbbccMcc >ih",
"  : wwvwcbbccbbccbbccbbccMcc <1s",
" O= wwvwcbbccbbccbbccbbccMcc ><s",
" *; wcvbbbbbbbbbbbbbbbmmMMcc >lj",
" ;1 wcvbbbbbbbbbbbbbbbmMMMcc <gj",
"O%< cccccccccccccccccccccccc >>s",
"+%,  cccccccccccccccccccccc  5<s",
"%5,<  vvvbbbbbbbbbbbbbbbmm  ><sh",
"$5<3  vbbbbbbbbbbbbbbbbbmM  ><uh",
"$>>> wwwccccccccccccccccbbb >>gl",
"$>>> wwwccccccccccccccccbbb >1pl",
"  ><  vvbbbbbbbbbbbbbbbbmM  <><s",
"  666 vbbbbbbbbbbbbbbbbbmM >><<s",
"  >>5 vbbbbbbbbbbbbbbbbbmM >6,<s",
"  56< vbbbbbbbbbbbbbbbbbmm.0q9,d",
" #>2>  wwwc          wwwc  qttkk",
".#16<< wwcc <<6<51<< wwcc <qkkkk",
" O><<5  wc  6<3<1><<  cc  87uthh",
"OX>>>>  cc 6<<<<<<>11 cc  1680ll",
"lgssih wwc g<>rpjssph ccc ijlllj",
"lljjlg     lssspjljgh     lgjlgj"
};
