/* XPM */
static char *_622ece0dd3b4061964d0a114d38d801up1PZztGvmAhtE9r[] = {
/* columns rows colors chars-per-pixel */
"32 32 55 1 ",
"  c gray11",
". c #1E1E1E",
"X c #211E1E",
"o c #212020",
"O c #232020",
"+ c #262020",
"@ c #292323",
"# c #2A2626",
"$ c #2C2624",
"% c #312828",
"& c #322928",
"* c #312B2B",
"= c #342C2C",
"- c #3E2D2C",
"; c #393030",
": c #3B3030",
"> c #443433",
", c #4B3837",
"< c #4B3B37",
"1 c #4D3837",
"2 c #4B3838",
"3 c #4F3B39",
"4 c #4C3B3B",
"5 c #4F3B3B",
"6 c #4D3C3A",
"7 c #513736",
"8 c #503C39",
"9 c #513C3A",
"0 c #533E3C",
"q c #563F3D",
"w c #55403F",
"e c #57403E",
"r c #045165",
"t c #624744",
"y c #664B44",
"u c #684B45",
"i c #6C4C47",
"p c #6E4D47",
"a c #6A4E49",
"s c #76534E",
"d c #77554E",
"f c #7B5751",
"g c #7E5A52",
"h c #805B53",
"j c #825C54",
"k c #825D54",
"l c #825D55",
"z c #CD436B",
"x c #FD497E",
"c c #0D718B",
"v c #009691",
"b c #00D7CF",
"n c #FF8799",
"m c #AEE9E1",
"M c #FFF7ED",
/* pixels */
"      &                  %o oO  ",
"   X+o  xxxxxxnnnnnnnnnn   $&$+ ",
"  :55  vxxxxxxxxnnnnnnnnM  qyull",
" o56  vvzxxxxxxxxxnnnnnnMM  lhhl",
"&,5  vvvzxxxxxxxxxnnnnnmmMM  yhh",
"%,5 vvvbzxxxxxxxxxnnnnnmmmmM ekk",
"%5, vvbbzxxxxxxxxxxnnnbbmmmM 4kj",
"%2, vvbbbzxxxxxxxxxnnnbbbmmM 9gh",
" @1 vvbbbzxxxxxxxxxnnbbbbmmM ,sg",
"oo, vvbbbzzxxxxxxxxxnbbbbmmM 5pj",
"&1, vvbbbbzzxxxxxxxxnbbbbmmM ,jj",
"%,, vvbbbbbzzxxxxxxxnbbbbmmM 2ah",
"  > vvbbbbbbbzzxxxxxnbbbbmmM 12d",
" o- vvbbbbbbbbzxxxxxxnbbbmmM ,,d",
" =; vvbbbbbbbbbzzzxxxxbbmmmM ,jj",
"o;5 vvbbbbbbbbbbbzzxxxxbmmMM ,jj",
"O*, vvbbbbbbbbbbbbbzzzxbmmMM ,,d",
"@&<  vbbbbbbbbbbbbbbbbbbmmM  5,d",
"&1,1  vbbbbbbbbbbbbbbbbbmM  51dg",
"&157  vvbbbbbbbbbbbbbbbbmM  ,1pl",
"$5,, rrrccccccccccccccccbbb ,,gj",
"&5,, rrrccccccccccccccccbbb ,,aj",
"  ,1  vvvvbbbbbbbbbbbbbbmM  152d",
"  665 vvbbbbbbbbbbbbbbbbmM ,,,2d",
"  1,6 vbbbbbbbbbbbbbbbbbmM 5581d",
"  165 vbbbbbbbbbbbbbbbbbmm eq69d",
" #16,  rrrc          rrrc  qyuhh",
" #1611 rrcc 6,61,551 rrcc 5qhhkk",
" +1111  rc  5,115,11  cc  5qpyhh",
"oo,1,,  cc 5,115,,,,1 cc  59eehk",
"lhddah rrc f1,yalddah ccc ahllhk",
"hlhhlh     jdsdahhhgg     hkhhkk"
};
