/* XPM */
static char *result[] = {
/* columns rows colors chars-per-pixel */
"32 32 77 1 ",
"  c black",
". c gray8",
"X c gray11",
"o c #1E1E1E",
"O c gray12",
"+ c #211E1E",
"@ c #212020",
"# c gray13",
"$ c #232020",
"% c #242121",
"& c #262020",
"* c #252222",
"= c #292323",
"- c #2B2424",
"; c #2A2626",
": c #2C2624",
"> c #312828",
", c #322928",
"< c #312B2B",
"1 c #342C2C",
"2 c #3E2D2C",
"3 c #3D302E",
"4 c gray21",
"5 c #393030",
"6 c #3B3030",
"7 c #443433",
"8 c #4C3736",
"9 c #4A3837",
"0 c #4B3837",
"q c #4B3937",
"w c #4B3B37",
"e c #4D3837",
"r c #4E3837",
"t c #4B3838",
"y c #4B3938",
"u c #4B3B39",
"i c #4D3838",
"p c #4C3938",
"a c #4C3939",
"s c #4E3938",
"d c #4E3939",
"f c #4D3B39",
"g c #4F3B39",
"h c #4C3B3B",
"j c #4F3B3B",
"k c #4E3C39",
"l c #4D3C3A",
"z c #4E3C3A",
"x c #533E3C",
"c c #55403F",
"v c #57403E",
"b c #57403F",
"n c #5B4440",
"m c #664B44",
"M c #664B46",
"N c #684B45",
"B c #6C4C47",
"V c #6E4D47",
"C c #6A4E49",
"Z c #6B4E49",
"A c #6D4D48",
"S c #76534E",
"D c #77554E",
"F c #7E5A52",
"G c #805A53",
"H c #805B53",
"J c #835B53",
"K c #805C54",
"L c #815C54",
"P c #815C55",
"I c #825C54",
"U c #825D54",
"Y c #825D55",
"T c #9A9797",
"R c #CDCDCD",
"E c #EFEEEE",
"W c white",
/* pixels */
"XXXXXX>>>Xo          >XX>>Xo$@XX",
"Xoo+&#90X   RRREEEEE   o00X:,:$X",
"oo3aip8  RRRR.RRRRRREE   00nMNUI",
"Xoahhd  RRRRR.RRRRRRREEE  0vLHLY",
">pppe  RRRRRRR.RRRRRRREEE  kBmIL",
">ajz  RRRRRRRRR.R.RRRREEEW  cbPY",
">f0s RRRR.RRRRRR...RRRREEEW elIL",
">ay  RRRRRRRRRRR.RRRRRRREEE  pFL",
"X=0 TR.R...RRRR.RRRRRRRREEEW pSK",
"%@q T.R.RRRRRRRRRRRRRRRREEEW eAJ",
">e0 .RR.RRRRRRRRRRRRRRRREEEW 0KL",
">09 T     RRRR    RRR   44EW yCJ",
"XX7 T      RRR    RRR    44E eyD",
"X*2 T  RR  RRRR  RRRR  RR44E 00D",
"X16 T  RR  RRRR  RRRR  RR44E 0LL",
"O50 T     RRRRR  RRRR    44E 0LL",
"%<q T    RRRRRR  RRRR    4EE p0D",
"->w T  R  RRRRR  RRRR  RREEE p0D",
">rw T  RR RRRR    RRR  RRREE sSK",
">p0 T  RR  R R    R R  RRR4E eVJ",
">pq TRRRRRRRRRRRRRRRRRRRRRRE tKL",
">e0 TTRRRRRRRRRRRRRRRRRRRRRE uZJ",
"XX0 TTRRRRRRRRRRRRRRRR.RRRRE pyD",
"XXf TTRRR.RR.RR.RRRRR.R.RRRE 00D",
"Xoy TTTRR.R.RR.RRRRRRRRR.RRR g0D",
"XXs TTTRRRRR..R.RRRRRRRR.RRR xgD",
"X;p TTTTRR..RRR.RRRRRRRRR.RR NUI",
"o;y TTTTT.RRRRRR..RRRRRR.R.R HLY",
"X*0 TT.T.TTRRRRRRRRRRRRR.R.R mIL",
"%@q T...TT.TTTRRRRRRRRRRRRR. bPY",
"LGD TTT.T...TTTTRRRRRRRRRR.. YIL",
"LLL                          LLL"
};
