/* XPM */
static char *_80dd09377144d789a9e0eeca02ab1cePrXCTfrPEnJTJhD7[] = {
/* columns rows colors chars-per-pixel */
"32 32 67 1 ",
"  c #161616",
". c gray11",
"X c gray12",
"o c #211E1E",
"O c #212020",
"+ c gray13",
"@ c #262020",
"# c #292323",
"$ c #2B2424",
"% c #2C2624",
"& c #312828",
"* c #322928",
"= c #312B2B",
"- c #362B2A",
"; c #342C2C",
": c #382D2C",
"> c #3B2D2C",
", c #3E2D2C",
"< c #3E312F",
"1 c #393030",
"2 c #3F3231",
"3 c #433332",
"4 c #413433",
"5 c #443433",
"6 c #443434",
"7 c #453635",
"8 c #463635",
"9 c #4A3736",
"0 c #4C3736",
"q c #483837",
"w c #4A3837",
"e c #4D3837",
"r c #493938",
"t c #4B3838",
"y c #4B3939",
"u c #4B3B39",
"i c #4D3838",
"p c #4F3938",
"a c #4C3B39",
"s c #4D3B39",
"d c #4C3B3B",
"f c #503736",
"g c #513737",
"h c #503C39",
"j c #533E3C",
"k c #55403F",
"l c #57403E",
"z c #5B4440",
"x c #624744",
"c c #664B44",
"v c #664B46",
"b c #684B45",
"n c #6C4C47",
"m c #6A4E49",
"M c #6B4E49",
"N c #6D4D48",
"B c #76534E",
"V c #77554E",
"C c #77544F",
"Z c #7E5A52",
"A c #FF4C2F",
"S c #D81F4E",
"D c #805B53",
"F c #845A52",
"G c #825C54",
"H c #825D55",
"J c #FFF7ED",
/* pixels */
"......**&.......*&&&*&..**..@O..",
"...o@Oty..o..o..>yt2=-.o9t.%*%O.",
"..2sis9t9<;;4q&;y994..;wsi9zccHH",
".Ossss9yi7..>t33>t79*>sw99yjGHHH",
"&isii9gg79&>y 99y9 w74>w99jsncGG",
"&issiists9374        9esis0skkHH",
"&stssstg9i9s9 AASSAAS ww9y9s0sGH",
"&tiis0s90ss9s AAJJAAJ wsitt0ssZZ",
".#tiseeewws0s AAJJAAJ we0s9sysBD",
"@Oy9y wws s00 AAJJAAJ ews0t09eND",
"&s9y9  0s  0y AAJJAAJ we siyi9HD",
"&9tisy  0     AAJJAAJ w  90i9sND",
"..679t        AA  AA     sewyeyV",
".o,>4y   SS AS       SS  e e0wwV",
".;14 9 S AAAAASSSSSSSAASS  ewwHD",
"o1s9   SAAAAAAAAAAAAAAAAA  eweDH",
"@*s97   SSSAAAAAAAAAAAAAA  eeswV",
"$*wes  SSAAAAAAAAAAAAAAAA yesewV",
"*yesy   S  A A A A A A    yyagVH",
"*yeg0s        J J J J J   eywenZ",
"&9st  ys        J   J    sseeyHG",
"&iwyy          J     J   wsewumG",
"..wsy        J J J J J J  sw wwV",
"..s      SS S A A A A S      ewV",
"..ys  SS AAAAAAAAAAAAAASSS  saeV",
"..sy0 SSSSSSAAAAAAAAAAAAAA j jsV",
".%y w  SSSSAAAASAAAAAAAAAA   bHG",
".*t   SSSSSSSSSSSSAASSAAAA  GDGH",
".@0s  SSSSSSSSSSSSSSSSSSSS jncHD",
"@o99y   SSSSS      SSSSS   sllHH",
"HZVVmZl      yxmDV       VmFHHDH",
"HHHZGHVVVVHHVVVNFDDHZHVVHZDHDDHD"
};
