/* XPM */
static char *_1d4a104833c4322cbde2d1dd94d761000Dhu91tvr5BOdgV[] = {
/* columns rows colors chars-per-pixel */
"32 32 61 1 ",
"  c #161616",
". c gray11",
"X c gray12",
"o c #211E1E",
"O c #212020",
"+ c gray13",
"@ c #262020",
"# c #292323",
"$ c #2C2624",
"% c #312828",
"& c #322928",
"* c #332A29",
"= c #312B2B",
"- c #342C2C",
"; c #382D2C",
": c #3B2D2C",
"> c #3E2D2C",
", c #3E312F",
"< c #393030",
"1 c #3F3231",
"2 c #433433",
"3 c #443434",
"4 c #463635",
"5 c #4A3736",
"6 c #4C3736",
"7 c #483837",
"8 c #4A3837",
"9 c #4B3B37",
"0 c #4D3837",
"q c #4B3838",
"w c #4B3939",
"e c #4B3B39",
"r c #4D3838",
"t c #4F3938",
"y c #4D3B39",
"u c #4C3B3B",
"i c #4E3C39",
"p c #503736",
"a c #513737",
"s c #533E3C",
"d c #533F3D",
"f c #57403E",
"g c #5B4440",
"h c #624744",
"j c #664B44",
"k c #664B46",
"l c #684B45",
"z c #6C4C47",
"x c #6B4E49",
"c c #76534E",
"v c #77554E",
"b c #77544F",
"n c #7E5A52",
"m c #FF4C2F",
"M c #D81F4E",
"N c #805A53",
"B c #835B53",
"V c #845A52",
"C c #805C54",
"Z c #825D55",
"A c #FFF7ED",
/* pixels */
"......&&&.......&%&%%%..&&..@o..",
"...o@Oqw.....O..-y5,;&..6y.$-$o.",
"..1yry5q51-&25&-5y54..-55q5gklZZ",
".Oyyyy5w64.o;w22:545%;yyy5rdZnZZ",
"%ryrr5aa45%: 6q5qqq5 2;85rdyzkZC",
"%ryyrryq5y2           0ew66yffCZ",
"%yqyyyqa55  MMMMMMMMm qw685y6yCC",
"%qrry6y5ywy MMMMMMmmm 5w6y5y0yNC",
".#qri866wq  MMMmMmmmm 80r68w8wcZ",
"@Ow5w0y55y6 MMmmmMmmm  86w6w00zn",
"%y5w805 y5q MMmmmmmmm  0yyry5yZn",
"%5qrw80  y5 MMmmmmmmM  i 65 qixV",
"..24q5w     MMMmmmmmM    8  600c",
".o>:2 6  MMMMmmmmmmmmMMM   0w50c",
".-<21  MMmMMMMMMMMmmmmmm m 85wZn",
"o<y55  MMmmmmmmmmmmmmmmmmm  0ynZ",
"@&5q4  mMmMmmmmmmmmmmMmmm    w8v",
"$&wyy6 MMMMMmmmmmmmmmmmmmm 8i80v",
"&e5awy MmMMMMMmmmmmmmmmmmm wiacn",
"&w6yar     M m m m m m MM i 8yzN",
"&w5y i  r     A   A      6  8wnZ",
"&5ww  y    A A A A A A     y0yzn",
"..5 w    MM M m m m m M    5ryyv",
"..i0   MMMmmmmmmmmmmmmmm     5yv",
"..ww  MMMmmmmmmmmmmmmmm mM  yayc",
"..ei  MMMMMMmmmmmmmmmmmmmm sdddv",
".$ww8  MMMmmmmmmMmmmmmmmm  g lNZ",
".&ww   MMMMMmmMMMMmmmmmmmM   nZn",
".@y8y MMMMMMMMMMMMMMMmmmmm  zkZn",
"Oo5y5   MMMMM      MMMMMM  fffZB",
"ZZvbzV        hxBv        xBZZBZ",
"NZnZZnvvvbZZvvvzBnZnZnvvZnnZnnZZ"
};
