/* XPM */
static char *_2ea3f1ab7824945fb5a909eba506290sxZhNXI4kJCbetnV[] = {
/* columns rows colors chars-per-pixel */
"32 32 60 1 ",
"  c #161616",
". c gray11",
"X c gray12",
"o c #211E1E",
"O c #212020",
"+ c gray13",
"@ c #262020",
"# c #292323",
"$ c #2A2626",
"% c #2C2624",
"& c #312828",
"* c #322928",
"= c #362B2A",
"- c #342C2C",
"; c #382D2C",
": c #3B2D2C",
"> c #3E2D2C",
", c #3E312F",
"< c #393030",
"1 c #3F3231",
"2 c #433433",
"3 c #443433",
"4 c #443434",
"5 c #463635",
"6 c #4A3736",
"7 c #4C3736",
"8 c #483837",
"9 c #4A3837",
"0 c #4B3B37",
"q c #4D3837",
"w c #4B3838",
"e c #4B3939",
"r c #4D3838",
"t c #4D3B39",
"y c #4C3B3B",
"u c #4D3C3A",
"i c #503736",
"p c #513737",
"a c #503C39",
"s c #563F3D",
"d c #5B4440",
"f c #624744",
"g c #664B46",
"h c #684B45",
"j c #6C4C47",
"k c #6E4D47",
"l c #6B4E49",
"z c #6D4D48",
"x c #76534E",
"c c #77554E",
"v c #77544F",
"b c #7E5A52",
"n c #FF4C2F",
"m c #D81F4E",
"M c #805A53",
"N c #845A52",
"B c #815C54",
"V c #825D54",
"C c #825D55",
"Z c #FFF7ED",
/* pixels */
"......***..O....******..**..@o..",
"...o@Owe........-w61==..wt.%*%O.",
"..1trt6w6,-*28*-6e65..-6w6tdghCC",
".Otttt6eq5..:e22:656*-te6w6sCMCC",
"&rtrr6pp56* 9t99e6e 22:6q9stzfCb",
"&rttrrtwq9           69t96easdCC",
"&twtttwp6q nmmmnmmmn  9q9qw6rtCM",
"&wrrt7t6t9 nZZZnZZZn e9tqe6t6tbC",
".#wr7qqqet nZZZnZZZn  qqqq7tetxM",
"@Oe6ee999  nZZZnZZZn q99996t66zM",
"&t6ee76t9  nZZZnZZZn q9e qttqeCM",
"&6wr r6 q  nZZZnZZZn 99  t669ezN",
"..25  6    n   n   n     tqq9qec",
".o>:2   mmm         mmm  q qq99c",
".-<21 m mnnnnnmmmmmmmnnmm  9q9CV",
"o<t6  mmmnnnnnnnnnnnnnnnn  q99Cb",
"O*6    mmnmnnnnnnnnnnnnnn  qtq9c",
"%*ere mmnnnnnnnnnnnnnnnnn qeqe9c",
"*ttte  mm n n n n n n     qetqcC",
"*q77 t     Z Z Z Z Z      eq6qkC",
"&t6w  e      Z   Z     t  t e9Vb",
"&reee       Z     Z      t  9tzC",
"..6tt     Z Z Z Z Z Z      9 t9c",
"..t    m m n n n n m mmm    99qc",
"..t7  mm nnnnnnnnnnnnnnmmm  tt6c",
"..tt7 mmmmmmnnnnnnnnnnnnnn  sstc",
".$t r  mmmmnnnnmnnnnnnnnn  dghVV",
".$t   mmmmmmmmmmmmnnmmnnn   VMMC",
".@6t  mmmmmmmmmmmmmmmmmmmm tkgbM",
"OOr6t  mmmmmm      mmmmm   tsdCC",
"CCcczM        flbc        lCCCCM",
"CMCMCMcxccCCccvzNCMVCMccVNCbVMVC"
};
