/* XPM */
static char *_11451b5f7b34ac7aa4cfc47c217c2911TtvjLjWAw2PhNYp[] = {
/* columns rows colors chars-per-pixel */
"32 32 63 1 ",
"  c gray11",
". c gray12",
"X c #211E1E",
"o c #212020",
"O c gray13",
"+ c #262020",
"@ c #292323",
"# c #2A2626",
"$ c #2C2624",
"% c #312828",
"& c #322928",
"* c #332A29",
"= c #342C2C",
"- c #382D2C",
"; c #392D2C",
": c #3B2D2C",
"> c #3E2D2C",
", c #3E312F",
"< c #393030",
"1 c #3F3231",
"2 c #433332",
"3 c #443434",
"4 c #453534",
"5 c #453635",
"6 c #4A3736",
"7 c #4C3736",
"8 c #483837",
"9 c #4A3837",
"0 c #4D3837",
"q c #4B3838",
"w c #4B3939",
"e c #4B3B39",
"r c #4D3838",
"t c #4F3938",
"y c #4C3B39",
"u c #4D3B39",
"i c #4C3B3B",
"p c #503736",
"a c #513737",
"s c #503C39",
"d c #533E3C",
"f c #533F3E",
"g c #55403F",
"h c #57403E",
"j c #5B4440",
"k c #624744",
"l c #664B44",
"z c #664B46",
"x c #684B45",
"c c #6C4C47",
"v c #6A4E49",
"b c #6D4D48",
"n c #76534E",
"m c #77554E",
"M c #77544F",
"N c #7E5A52",
"B c #FB4D34",
"V c #B9244E",
"C c #805B53",
"Z c #845A52",
"A c #825C54",
"S c #825D55",
"D c #FFF7ED",
/* pixels */
"      &&&  o    &%%%&&  &&  @o  ",
"   X+oqw        =u61;&  ww $&$o ",
"  1uru6q6>=&38%= 765  :9909hllAS",
" ouuuu6wu5 X;u 3 656 -w9w69hSASS",
"%rurr6aa56&;w  6 q 6 2;966duclSC",
"%ruurruq76352        ww0ru7uhhSS",
"%uquuuqa66uw6 BBVVBBV 6u6w6u6uNS",
"%qrru7u6u6uu6 BBDDBBD w9u6q7uuNS",
" @qru00099u0u BBDDBBD 90776uqunN",
"+ow6w 99u u97 BBDDBBD 09urq76ubC",
"%u6w9  7u  70 BBDDBBD 90 ururqCC",
"%6qrw9  7     BBDDBBD 9  67r6ubC",
"  35q6        BB  BB     u09q7uM",
" X>;2w   VV BV       VV  0 07w9M",
" =<2 w V BBBBBVVVVVVVBBVV  099AA",
"X<u6   VBBBBBBBBBBBBBBBBB  099AA",
"o&095   VVVBBBBBBBBBBBBBB  00u9M",
"$&99u  VVBBBBBBBBBBBBBBBB w0w09M",
"&u9s9   V  B B B B B B    wwu0MA",
"&00psu        D D D D D   0w60cA",
"&w6u  9w        D   D    uu00eAA",
"&rqqe          D     D   9u09evA",
"  6uu        D D D D D D  u9 99m",
"  u      VV V B B B B V      09m",
"  uq  VV BBBBBBBBBBBBBBVVV  es7m",
"  uu7 VVVVVVBBBBBBBBBBBBBB g sum",
" #u r  VVVVBBBBVBBBBBBBBBB   xAA",
" #u   VVVVVVVVVVVVBBVVBBBB  AAAA",
" +w0  VVVVVVVVVVVVVVVVVVVV gclAA",
"oo99q   VVVVV      VVVVV   uhhSS",
"SAMMvCd       kcAM       mvASSNS",
"ASSZCSMMmmSSmMmvZANAAAmmNNASNASN"
};
