/* XPM */
static char *_7727e5054e54abbf374aa0ea7d169a0BHpKwNM52w2NQNvm[] = {
/* columns rows colors chars-per-pixel */
"32 32 68 1 ",
"  c gray11",
". c #1E1E1E",
"X c gray12",
"o c #211E1E",
"O c #212020",
"+ c gray13",
"@ c #262020",
"# c #252222",
"$ c #292323",
"% c #2B2424",
"& c #2C2624",
"* c #312828",
"= c #322928",
"- c #362B2A",
"; c #342C2C",
": c #392D2C",
"> c #3B2D2C",
", c #3E2D2C",
"< c #3E312F",
"1 c #393030",
"2 c #3F3231",
"3 c #433433",
"4 c #443433",
"5 c #443434",
"6 c #463635",
"7 c #4A3736",
"8 c #4C3736",
"9 c #483837",
"0 c #4A3837",
"q c #4B3B37",
"w c #4D3837",
"e c #493938",
"r c #4B3838",
"t c #4B3939",
"y c #4B3B39",
"u c #4D3838",
"i c #4D3B39",
"p c #4F3B39",
"a c #4C3B3B",
"s c #4E3C39",
"d c #503736",
"f c #513737",
"g c #533E3C",
"h c #533F3D",
"j c #55403F",
"k c #57403E",
"l c #5B4440",
"z c #624744",
"x c #664B44",
"c c #664B46",
"v c #684B45",
"b c #6C4C47",
"n c #6E4D47",
"m c #6A4E49",
"M c #6B4E49",
"N c #6D4D48",
"B c #77554E",
"V c #77544F",
"C c #7E5A52",
"Z c #FB4D34",
"A c #B9244E",
"S c #805B53",
"D c #835B53",
"F c #845A52",
"G c #815C55",
"H c #825D54",
"J c #825D55",
"K c #FFF7ED",
/* pixels */
"      ==*       =====*  -=  @O  ",
"   o@Ort  o     ;772-;  7t &=&O ",
"  2iui7rt<-=69* t776  :000wlcvGG",
" Oiiii7t76  :t3 : 67=:00w00kHHGG",
"*uiuu7ff60= i t t  053:0w0hsvcCG",
"*uiiuuir003        000tw00wiklGH",
"*iriiirf0w AZZAAZZ 000wi0w0w8iGG",
"*ruui8i7w7 KZZKKZZ 7wtt0wt78iiCH",
" $rus088tr KZZKKZZ w0it8ww7ttwVC",
"@Ot7twi77i KZZKKZZ 0w8 700 w0wND",
"*i7tt87 8r KZZKKZZ w0  ii  i0wGG",
"*7rut7u  7 KZZKKZZ     w  7w00MH",
"  567r7     ZZ  ZZ        wswwiV",
" o,:3 i  AA       AZ AA   ww000V",
" ;13<  AAZZAAAAAAAZZZZZ A 0 w0DC",
"o1i78  ZZZZZZZZZZZZZZZZZA   0iGC",
"O;000  ZZZZZZZZZZZZZZAAA   wwt0V",
"%*swtw ZZZZZZZZZZZZZZZZAA  tiw0V",
"*wwwtw    Z Z Z Z Z Z  A   twsVD",
"*w7fis   K K K K K        iw0wNC",
"*0wty0s    K   K        qw  w0DG",
"*w0ysww   K     K          w0iMC",
"  0 qw  K K K K K K        0wwsV",
"  s      A Z Z Z Z A AA      0wV",
"  tt  AAAZZZZZZZZZZZZZZ AA  y0wV",
"  s 7 ZZZZZZZZZZZZZZAAAAAA lkjqV",
" &t   ZZZZZZZZZZAZZZZAAAA  k xHH",
"X&ts  ZZZZAAZZAAAAAAAAAAAA   CDH",
" @0ww AAAAAAAAAAAAAAAAAAAA  NcHG",
"OO00i   AAAAA      AAAAA   gkkGH",
"GHVVMDh       znHV       VMHHGGH",
"GCGDCDVVVVGHVVBvHHGCDCVVHCGCHGDH"
};
