/* XPM */
static char *_6c5fd7846434708afae8d941962bde9pNida2V6nnqMsz0d[] = {
/* columns rows colors chars-per-pixel */
"32 32 72 1 ",
"  c #161616",
". c gray11",
"X c #1E1E1E",
"o c gray12",
"O c #211E1E",
"+ c #212020",
"@ c gray13",
"# c #232020",
"$ c #242121",
"% c #262020",
"& c #292323",
"* c #2B2424",
"= c #2A2626",
"- c #2C2624",
"; c #312828",
": c #322928",
"> c #312B2B",
", c #362B2A",
"< c #342C2C",
"1 c #392D2C",
"2 c #3B2D2C",
"3 c #3E2D2C",
"4 c #3B302E",
"5 c #3E312F",
"6 c #393030",
"7 c #3F3231",
"8 c #433433",
"9 c #443433",
"0 c #443434",
"q c #463635",
"w c #483534",
"e c #4A3736",
"r c #4C3736",
"t c #483837",
"y c #4A3837",
"u c #4B3B37",
"i c #4D3837",
"p c #4B3838",
"a c #4B3939",
"s c #4B3B39",
"d c #4D3838",
"f c #4D3B39",
"g c #4F3B39",
"h c #4C3B3B",
"j c #503736",
"k c #513737",
"l c #533E3C",
"z c #563F3D",
"x c #57403E",
"c c #57403F",
"v c #624744",
"b c #664B44",
"n c #664B46",
"m c #684B45",
"M c #6C4C47",
"N c #6E4D47",
"B c #6B4E49",
"V c #76534E",
"C c #75554F",
"Z c #77554E",
"A c #77544F",
"S c #7E5A52",
"D c #FF4C2F",
"F c #D81F4E",
"G c #805B53",
"H c #835B53",
"J c #845A52",
"K c #805C54",
"L c #815C54",
"P c #825D54",
"I c #825D55",
"U c #FFF7ED",
/* pixels */
"......:::..+....::;;;;..::..%%..",
"...O%+pa........1ee7,,..aa.-:=+.",
"..7fdfepy5,,8e;<yye8..1yeedcnmII",
".+ffffeaaq..1f001eqa:4yyfeecPSII",
";dfddekkqy:1f yyay y881yyicfMnPP",
";dffddfpyy8        ieaaiyyyfccSP",
";fpfffpkyi FDDFFDD yyyifiyiyffPS",
";pddfrfeiy UDDUUDD yiaayiyyaifSI",
".&pdfiyraa UDDUUDD feiyiiiyiaiCP",
"%+aeaifeei UDDUUDD eff yyi ayimP",
";feaare iy UDDUUDD ie  if  iiePP",
";epdaed  y UDDUUDD     f  yiyfBH",
"..0qepe     DD  DD        iyyiaC",
".O318 f  FF       FD FF   iiiyiC",
".<685  FFDDFFFFFFFDDDDD F a yyPP",
"O6fer  FFDDDDDDDDDDDDDDDD   yePH",
"%>eaq  FDDDDDDDDDDDDDDDD   efrdC",
"*;aari FFFDDDDDDDDDDDDDDD  fdfrC",
";ipkff    F D D D D D  D   yfkVH",
";frkkf   U U U U U        rffrNS",
";yiayfy    U   U        ff  paSS",
";iyaaff   U     U          refNI",
"..y ff  U U U U U U        prdfC",
"..f      F F F D D D DF      efC",
"..fy  FFFDDDDDDDDDDDDDD FF  ffpA",
"..i i FFFFFFFDDDDDDDDDDDDF zzzkA",
".=i   FFFFDDDDDDFDDDDDDDD  z nII",
"o=af  FFFFFFDDFFFFFDDDDDDD   PPP",
".%yii FFFFFFFFFFFFFFFFDDDD  MbSP",
"@@iif   FFFFF      FFFFF   zxcPS",
"PSACBJx       vNJCC      CBIHIPP",
"SPSPPSCCAASPCCCBHISPHPCCISSISPSP"
};
