/* XPM */
static char *fca6d4b8c3744e4cb27563f81a7039743YJfGt5J1SvKmqzn[] = {
/* columns rows colors chars-per-pixel */
"32 32 64 1 ",
"  c gray11",
". c gray12",
"X c #211E1E",
"o c #212020",
"O c #232020",
"+ c #262020",
"@ c #292323",
"# c #2A2626",
"$ c #2C2624",
"% c #312828",
"& c #322928",
"* c #312B2B",
"= c #342C2C",
"- c #3E2D2C",
"; c #3A302E",
": c #3E312F",
"> c #393030",
", c #3E3131",
"< c #433332",
"1 c #443433",
"2 c #463635",
"3 c #483534",
"4 c #4C3736",
"5 c #4B3837",
"6 c #4B3B37",
"7 c #4D3837",
"8 c #4F3837",
"9 c #4B3838",
"0 c #4B3939",
"q c #4B3B38",
"w c #4B3B3B",
"e c #4D3838",
"r c #4C3B38",
"t c #4D3B39",
"y c #4C3B3B",
"u c #4F3B3B",
"i c #4D3C3A",
"p c #513736",
"a c #513C3A",
"s c #533F3D",
"d c #563F3D",
"f c #55403F",
"g c #57403E",
"h c #57403F",
"j c #624744",
"k c #664B44",
"l c #664B46",
"z c #684B45",
"x c #6E4D47",
"c c #6D4D48",
"v c #76534E",
"b c #77554E",
"n c #77544F",
"m c #7B5751",
"M c #7E5A52",
"N c #FB4D34",
"B c #B9244E",
"V c #805A53",
"C c #845A52",
"Z c #805C54",
"A c #825C54",
"S c #825D54",
"D c #825D55",
"F c #FFF7ED",
/* pixels */
"      &&&        &&&    &&  ++  ",
"   X+o00               .50 $&#o ",
"  ,tee4   BNNBBNN BB      4flzDD",
" ottwt  B FNNFFNN BN B  405fSMSS",
"%e9te4  N FNNFFNN NNNB 055stxlDS",
"%ttte0  N  NN  NN NBB   555tffMS",
"%t4ettt NB       BNNBB  55407iDM",
"%etet40  N B B B N  B     4i7tMD",
" @eei7  F F F F F      7774000vM",
"oo99555   F   F       55554t45xS",
"&4990750    5       5 55t7t055DM",
"%94e5555          0 5 575t4450cZ",
"  110055 5     5  7 5 500570570b",
" +--<55557 5     77 55575777555b",
" =>,:55555555   655 5 5i555555DS",
".>095i55 555 5 770q 5557550755VS",
"+&552755 4 0t   570 5 557i07705b",
"#&54t755 4        5 5 575 67i75b",
"&ttt5i5      4           700tibM",
"&47p7    F     F        577047xS",
"&0400  F F F F F F      5  550SS",
"%905q7  B N N N N B B     7750xV",
"  5707 BNNNNNNNNNNNNN B  005750b",
"  ii00 NNNNNNNNNNNNBBBB 7755555b",
"  05i  NNNNNNNNBNNNNBB  5577i67b",
"  775  NNBBNNBBBBBBBBBB    gff6b",
" #0i4i BBBBBBBBBBBBBBBB   5fzzSS",
" &00767 BBB         BBBB i7fDVSS",
" o0444t BB et0tet4t4     4aaxkSV",
"+o40t04 B jtt9407740t44t070affSS",
"DMmvcCs B Mm40jxMbbcZD77bbcDMDSS",
"SDDDMMbb bDDbbmcDMDMMSbbDMMDDSMS"
};
