/* XPM */
static char *_a8bf5449b084d18acb15381af124f44lkuBll6xDggZYGDB[] = {
/* columns rows colors chars-per-pixel */
"32 32 59 1 ",
"  c #161616",
". c #181818",
"X c gray11",
"o c #211E1E",
"O c #212020",
"+ c gray13",
"@ c #262020",
"# c #292323",
"$ c #2A2626",
"% c #2C2624",
"& c #312828",
"* c #322928",
"= c #312B2B",
"- c #342C2C",
"; c #3E2D2C",
": c #3E312F",
"> c #393030",
", c #3E3131",
"< c #433332",
"1 c #4C3736",
"2 c #4B3837",
"3 c #4D3837",
"4 c #4B3838",
"5 c #4B3939",
"6 c #4B3B39",
"7 c #4B3B3B",
"8 c #4D3838",
"9 c #4C3B38",
"0 c #4D3B39",
"q c #4C3B3B",
"w c #513737",
"e c #503C39",
"r c #533E3C",
"t c #533F3E",
"y c #563F3D",
"u c #593F3E",
"i c #55403F",
"p c #59423E",
"a c #5B4440",
"s c #624744",
"d c #664B44",
"f c #664B46",
"g c #684B45",
"h c #6C4C47",
"j c #6A4E49",
"k c #76534E",
"l c #75554F",
"z c #77554E",
"x c #7B5751",
"c c #7E5A52",
"v c #FF4C2F",
"b c #D81F4E",
"n c #805A53",
"m c #835B53",
"M c #845A52",
"N c #805C54",
"B c #825D54",
"V c #825D55",
"C c #FFF7ED",
/* pixels */
"XXXXXX***XXX.XXX*** **XX**XX@+XX",
"XXXo@O55X            . X15X%*%OX",
"XX,0881   bbbbbvvbbbvb  515pddVV",
"XO0070  bbbbbCCvvCCvvvb  41tVVVV",
"&85881w bbbvvCCvvCCvv v  1y0hsVc",
"&00085   bbbv  vv  vvvv  510yacV",
"&01000  bbbvvb    vvvbv 221800Vc",
"&8408    bv b b b v vv  25108qcV",
"X#08332    C C C C C    332253lV",
"OO14522      C   C      222523hB",
"*11553 53              0530322Bc",
"*418222232 5   3     2 3252323jV",
"XX<<552222 52     3  2 52532235l",
"XO;;<52222 222   3 3 2 22333223l",
"X->,:22222 2 2 0 222 2 2225222BB",
"O>52032222 2023    322 3252323Bn",
"O=2313222  3 2    5  2223023902l",
"%*2023222        2     22353033l",
"*0235323             22 53559eln",
"*22w3002    C     C     233633hM",
"*012252   C C C C C C   259925cV",
"&12500  bb v v v v b v b 30329jB",
"XX209  b vvvvvvvvvvvvvbb 322323l",
"XX0352 bbbbvvvvvvvvvvvvv  22233l",
"XX0400  bbvvvvbvvvvvvvvvb 22902l",
"XX004  bbbbbbbbbbvvbbvvvv 3iprez",
"X%504  bbbbbbbbbbbbbbbbv 02pdhBn",
"X%6088  bb   bbbbbbbbb  523iBnVB",
"X@10185   p3    bbb   2223r3hdBc",
"OO11044uBcs09333  b 2323222riiVV",
"VVlljMt0hhBc03shn   nB30lljnVVVn",
"nVVMnBllzzcVllljnB BBBzlMnVnBnBV"
};
