/* XPM */
static char *_4aa8efcfe514414ec75571d54aab592mXMLHPAmMkyRimxc[] = {
/* columns rows colors chars-per-pixel */
"32 32 62 1 ",
"  c #161616",
". c #181818",
"X c gray11",
"o c gray12",
"O c #211E1E",
"+ c #212020",
"@ c gray13",
"# c #262020",
"$ c #292323",
"% c #2A2626",
"& c #2C2624",
"* c #312828",
"= c #322928",
"- c #342C2C",
"; c #3E2D2C",
": c #3A302E",
"> c #3D302E",
", c #393030",
"< c #3E3131",
"1 c #433332",
"2 c #443433",
"3 c #463635",
"4 c #493736",
"5 c #4E3736",
"6 c #4A3837",
"7 c #4B3B37",
"8 c #4E3837",
"9 c #4B3838",
"0 c #4B3939",
"q c #4D3838",
"w c #4C3B38",
"e c #4D3B39",
"r c #4C3B3B",
"t c #513737",
"y c #503C39",
"u c #513C3A",
"i c #563F3D",
"p c #593F3E",
"a c #55403F",
"s c #57403E",
"d c #57403F",
"f c #5B4440",
"g c #624744",
"h c #664B46",
"j c #684B45",
"k c #6E4D47",
"l c #6A4E49",
"z c #6D4D48",
"x c #76534E",
"c c #75554F",
"v c #77554E",
"b c #77544F",
"n c #7B5751",
"m c #7E5A52",
"M c #FF4C2F",
"N c #D81F4E",
"B c #835B53",
"V c #805C54",
"C c #815C54",
"Z c #825D54",
"A c #825D55",
"S c #FFF7ED",
/* pixels */
"XXXXXX===XXXXXXX====&.XX**XX++XX",
"XXXO#+00XX   .        . 40X&=&#X",
"XX<eqe      NN MMNNMMN   04fhhAA",
"X+ee0e50  N MN MMSSMMS N  qpAmAA",
"*qqeqqtt3 NMMM MMSSMMS M  iejjAZ",
"*9uee4e4   NNM MM  MM  M  4udsZA",
"*e4eqeqt  NNMMN       NM 9e45eZV",
"*00qeq     N  M N N N M  94e4emV",
"X$0q5q48ee     S S S S S  9506vm",
"#+04000449       S   S   44905kA",
"=54e954q95 4       8    e50e86AA",
"*045e49e59 e 8          q09564lV",
"XX23404404 0 8  6     8 4e5968ev",
"X#;;1r546866 60 .   6 6694e5684v",
"X-,<:84e66 8 80w   0660850e994CC",
"X,e08we46866 6888 6 866 404q5eAm",
"@=66186886 8 684   66 8 8w05e68v",
"&=85w8 666 6 6        6 8605806v",
"=w8e0w6           6      06eeevm",
"=84tue68        S     S    w48kA",
"=04e0. 6      S S S S S S  w80mA",
"=99908     N N M M M M N  8860zm",
"XX4urwe  N MMMMMMMMMMMMMN 0688wn",
"XXe98686 NNNNMMMMMMMMMMMM 66666v",
"XXe0qeqe  NNMMMMNMMMMMMMM  0wuwv",
"XXwwq    NNNNNNNNNNMMNNMM  ssuwv",
"X&0w4e   NNNNNNNNNNNNNNNN 6shjAV",
"O&00q05 NNNN         NNN 08sCCZZ",
"X#655q0     0qeee4888 NN 8uukhmA",
"#+66009pVVge0555e66045 N 68eipAA",
"AmxvlAi0hhmne5glVvvlVB N vlBABAA",
"AAVBVAvvvnAAvvxzBAAmAAv AmAmAVVV"
};
