/* XPM */
static char *eaba23c86d94428bd20281f6fd57bc0bm5cY7Ha36MgxIsPB[] = {
/* columns rows colors chars-per-pixel */
"32 32 69 1 ",
"  c gray11",
". c gray12",
"X c #211E1E",
"o c #212020",
"O c gray13",
"+ c #262020",
"@ c #292323",
"# c #2A2626",
"$ c #2C2624",
"% c #312828",
"& c #322928",
"* c #312B2B",
"= c #342C2C",
"- c #3E2D2C",
"; c #3A302E",
": c #3D302E",
"> c #393030",
", c #3E3131",
"< c #433332",
"1 c #443433",
"2 c #463635",
"3 c #493736",
"4 c #4E3736",
"5 c #4A3837",
"6 c #4B3B37",
"7 c #4E3837",
"8 c #4F3837",
"9 c #4B3838",
"0 c #4B3939",
"q c #4D3838",
"w c #4C3B38",
"e c #4D3B39",
"r c #4C3B3B",
"t c #4E3C39",
"y c #513737",
"u c #503C39",
"i c #513C3A",
"p c #533E3C",
"a c #533F3E",
"s c #563F3D",
"d c #593F3E",
"f c #55403F",
"g c #57403E",
"h c #57403F",
"j c #5B4440",
"k c #614743",
"l c #624744",
"z c #664B44",
"x c #664B46",
"c c #684B45",
"v c #6C4C47",
"b c #6E4D47",
"n c #6B4E49",
"m c #6D4D48",
"M c #76534E",
"N c #75554F",
"B c #77554E",
"V c #77544F",
"C c #7E5A52",
"Z c #FB4D34",
"A c #B9244E",
"S c #805A53",
"D c #835B53",
"F c #845A52",
"G c #805C54",
"H c #825C54",
"J c #825D54",
"K c #825D55",
"L c #FFF7ED",
/* pixels */
"      &&&       & %%%%  &&  +o  ",
"   X+o00                99 $&$o ",
"  ,eqe      AA ZZAAZZA   93jxcKK",
" oee0e40  A ZA ZZLLZZL A  esKCHK",
"%qqeqqyy2 AZZZ ZZLLZZL Z  secxHH",
"%9iee3e3   AAZ ZZ  ZZ  Z  9ijsCH",
"%e3eqeqy  AAZZA       AZ 3q3eeKH",
"%00qeq     A  Z A A A Z  0399eCH",
" @0q4q37e      L L L L L  505eMC",
"+o03000339       L   L   97057vD",
"&43e943q04 e       7    407w57KK",
"%034e39e70 3 3          095755nD",
"  12303355 5 7  0     7 5075570N",
" +--<r437557 57     5 555774755N",
" =>,;73e57 5 eee   555e755e375GG",
" >e07we35555 5477 5 755 0w5757GG",
"o&4334303e e 4e3   55 5 7e57e75N",
"$&5e04 433 9 3        5 57e5705B",
"&w0e0q3           7      e70wwBC",
"%e4y4ee3        L     L    058vK",
"%0939  e      L L L L L L  7y5KC",
"%q9eee     A A Z Z Z Z A  e700vK",
"  3ue44  A ZZZZZZZZZZZZZA e577eN",
"  e4e3e9 AAAAZZZZZZZZZZZZ 55553B",
"  00eee4  AAZZZZAZZZZZZZZ  eie4N",
"  ee4    AAAAAAAAAAZZAAZZ  fsp7B",
" $0e99   AAAAAAAAAAAAAAAA 3hccCK",
".$004eq AAAA         AAA 4esGKKJ",
" +04q05     eee4w4e47 AA 7usvzCK",
"+o3q09edCDlee34ee33075 A 35wggKK",
"CKBNnFpwvzDCq3lnHBBnDK A NnDKJKK",
"CKHKCKBNNNHKVVVmCKKCCDN KDKKKCKC"
};
