/* XPM */
static char *_24231683f7c453cf3fe08c2c2b748b09nsUgayU67LNaMML[] = {
/* columns rows colors chars-per-pixel */
"32 32 66 1 ",
"  c #161616",
". c #181818",
"X c gray11",
"o c #1E1E1E",
"O c gray12",
"+ c #211E1E",
"@ c #212020",
"# c #232020",
"$ c #262020",
"% c #292323",
"& c #2A2626",
"* c #2C2624",
"= c #312828",
"- c #322928",
"; c #312B2B",
": c #342C2C",
"> c #3E2D2C",
", c #3A302E",
"< c #3E312F",
"1 c #393030",
"2 c #3E3131",
"3 c #433332",
"4 c #443433",
"5 c #463635",
"6 c #483534",
"7 c #4C3736",
"8 c #4B3837",
"9 c #4B3B37",
"0 c #4D3837",
"q c #4B3838",
"w c #4B3939",
"e c #4B3B38",
"r c #4B3B3B",
"t c #4D3838",
"y c #4D3B39",
"u c #4C3B3B",
"i c #4F3B3B",
"p c #4E3C39",
"a c #4E3C3A",
"s c #513736",
"d c #503C39",
"f c #513C3A",
"g c #533E3C",
"h c #533F3D",
"j c #55403F",
"k c #57403E",
"l c #57403F",
"z c #614743",
"x c #664B44",
"c c #664B46",
"v c #684B45",
"b c #6C4C47",
"n c #6A4E49",
"m c #6D4D48",
"M c #76534E",
"N c #75554F",
"B c #77554E",
"V c #7B5751",
"C c #7E5A52",
"Z c #FF4C2F",
"A c #D81F4E",
"S c #805A53",
"D c #835B53",
"F c #805C54",
"G c #825D54",
"H c #FFF7ED",
/* pixels */
"XXXXXX---X XXXXX----==XX--XO@$XX",
"XXX+$@ww .            XXwwX*-*@X",
"XX2ytt7   AAAAAZA ZZ      7lcvGG",
"X@yyry  A HAZHHZA ZZ A  7wwhGCGG",
"=tqyt7  A HAZHHZZ ZZZZ 77whymcGG",
"=yyytw  A  ZA  ZZ ZZZ   87qyjjFG",
"=y7tyyy AA       ZZZZA  887wtyFF",
"=tyty7w  A A A Z Z  A     7y7tFF",
"X%tty0  H H H H H     80008w8wMG",
"@@qq987   H   H       88888080bG",
"-7qqw08w    8       8 8wy0yw7wGC",
"=q7t8888          8 8 8y8w708wmG",
"XX44ww88 w     8  0 8 888w0w888M",
"X$>>388887 8     00 888y8000880M",
"X:12<8888888w   98w 8 8y888888GG",
"O1wq8y88 888 8 00w8 888089w08wGC",
"@-w07088 7 qy   80w 8 880y80y08M",
"&-80w088 q        8 8 880 y80w0M",
"-08y8e8      7           8ywydMC",
"-y0sy    H     H        808y00bG",
"-w88w  H H H H H H      7  y8wCG",
"=78ww7  A A Z Z Z Z A     y089mG",
"XX8yyy AAAZZZZZZZZZZZ A  8e800wM",
"XXy07q AAAAAZZZZZZZZZZZ 008888wM",
"XXw7y  AAZZZZZZAZZZZZZ  w800yp0M",
"XXyy7  AAAAZZAAAAAZZZZZ    jkjpM",
"X&wwyy AAAAAAAAAAAAAAZZ   8jxvGG",
"X-wy77y AAA         AAAA y0jGCGG",
"X$7y7tq AA yywyyyq7y     tffbxGG",
"@O7yyqq A zyw77wy777q77w7qwfjjGG",
"GGMMmDh A GCy7zmCMMnGG7yMMmGGGGC",
"CGGGCGMM MFGMMVmGGGCGGMMGGCGGGCG"
};
