/* XPM */
static char *_f002830019a4d94b9086060c776a276q5ZXkOnV7sZz2iSF[] = {
/* columns rows colors chars-per-pixel */
"32 32 65 1 ",
"  c #161616",
". c #181818",
"X c gray11",
"o c gray12",
"O c #211E1E",
"+ c #212020",
"@ c #232020",
"# c #262020",
"$ c #292323",
"% c #2A2626",
"& c #2C2624",
"* c #312828",
"= c #322928",
"- c #312B2B",
"; c #342C2C",
": c #3E2D2C",
"> c #3A302E",
", c #3E312F",
"< c #393030",
"1 c #3E3131",
"2 c #433332",
"3 c #443433",
"4 c #463635",
"5 c #483534",
"6 c #4C3736",
"7 c #4B3837",
"8 c #4B3B37",
"9 c #4D3837",
"0 c #4B3838",
"q c #4B3939",
"w c #4B3B39",
"e c #4B3B3B",
"r c #4D3838",
"t c #4D3B39",
"y c #4C3B3B",
"u c #4F3B3B",
"i c #4E3C3A",
"p c #513736",
"a c #503C39",
"s c #533E3C",
"d c #533F3D",
"f c #593F3E",
"g c #55403F",
"h c #57403E",
"j c #57403F",
"k c #5B4440",
"l c #624744",
"z c #664B44",
"x c #664B46",
"c c #684B45",
"v c #6C4C47",
"b c #6D4D48",
"n c #76534E",
"m c #75554F",
"M c #77554E",
"N c #77544F",
"B c #7E5A52",
"V c #FF4C2F",
"C c #D81F4E",
"Z c #805A53",
"A c #845A52",
"S c #805C54",
"D c #825D54",
"F c #825D55",
"G c #FFF7ED",
/* pixels */
"XXXXXX===XX XXXX== ===XX==XX#+XX",
"XXXO#+qq .            XXqqX%=%#X",
"XX1trr6  CCCCCCCCVVVV   0q6dzzFF",
"X+ttet  CCCCCVVVVVVVVCC  66kFBDD",
"*r0tr6  C CCCVVVVVVVVVV 60dtbzFF",
"*tttrq  CCCCVVVVVVVVVV   60tggSF",
"*t6rttt CCCVCCVVVVVVVV   06tttSS",
"*rtrt6q CCCCV  VVVVVVVC   6t66ZS",
"X$rr999  CC C C V V VV  6t6qqqMB",
"++00w77    G G G G G    660669vF",
"=600q97q              7w t6tq6FD",
"*06r7777 7     9   7 779q0q66tbB",
"XX33qq77 7  7     97 77q7q9777qM",
"X#::2777 7 7 7   999 7797999777M",
"X;<1,777 7 7q7 t 7 7 7q977q777FD",
"o<q07t77 777    97q9 7797q797qDB",
"o;r6497766  t    9 7  779t79t97M",
"%*6tt977     q        7779t79q7M",
"=6t6qt7 q6             7q7tq9aMB",
"=t6pa67   G G G G G G  t797tq9vF",
"*t60qt C C C V V V V VC  7tt7qBD",
"*66qqt CCVVVVVVVVVVVVV C  t97qvD",
"XXqtq  CCCCVVVVVVVVVVVVV 9779qtM",
"XXt6q CCCCVVVVVVVVVVVVV  977777M",
"XXt6t CCCCCCVVCCCVVVVVVC  97ta7M",
"XXtt6 CCCCCCVCCCCCCVVVVV  9hgg9M",
"X%tt0t CCCCCCCCCCCCCVVVV  7gzzDD",
"X%tt6rr  CCCCCCCCC   CC  q9gDDDD",
"X+6tr6qkz   CCC    66   66aavzDD",
"#+07rqqfFBl C  tt06t6tq6t6ttggBD",
"FBNMvZdtbzB   lbBMMbADt6nNbFFFFD",
"DDDDZFMMMNFF MnbFDFBFBnMFZFBFFBF"
};
